#tb 0: 1/44100
#media_type 0: audio
#codec_id 0: pcm_s16le
#sample_rate 0: 44100
#channel_layout_name 0: mono
0,          0,          0,     1152,     2304, 0x907cb7fa
0,      26496,      26496,     1152,     2304, 0xb8dc7525
0,      52992,      52992,     1152,     2304, 0x3e7d6905
0,      79488,      79488,     1152,     2304, 0xef47877b
0,     105984,     105984,     1152,     2304, 0xfe916b7e
0,     132480,     132480,     1152,     2304, 0xe3d08cde
0,     158976,     158976,     1152,     2304, 0xff7f86cf
0,     185472,     185472,     1152,     2304, 0x843e6f95
0,     211968,     211968,     1152,     2304, 0x81577c26
0,     238464,     238464,     1152,     2304, 0x04a085d5
0,     264960,     264960,     1152,     2304, 0x1c5a76f5
0,     291456,     291456,     1152,     2304, 0x4ee78623
0,     317952,     317952,     1152,     2304, 0x8ec861dc
0,     344448,     344448,     1152,     2304, 0x0ca179d8
0,     370944,     370944,     1152,     2304, 0xc6da750f
0,     397440,     397440,     1152,     2304, 0xf6bf79b5
0,     423936,     423936,     1152,     2304, 0x97b88a43
0,     450432,     450432,     1152,     2304, 0xf13c7b9c
0,     476928,     476928,     1152,     2304, 0xdfba83af
0,     503424,     503424,     1152,     2304, 0xc9467d4b
0,     529920,     529920,     1152,     2304, 0xbbb58e2b
0,     556416,     556416,     1152,     2304, 0x3a1078ea
0,     582912,     582912,     1152,     2304, 0xe9587a5c
0,     609408,     609408,     1152,     2304, 0xef5a8039
0,     635904,     635904,     1152,     2304, 0x9d5f782f
0,     662400,     662400,     1152,     2304, 0x1a548291
0,     688896,     688896,     1152,     2304, 0x07517701
0,     715392,     715392,     1152,     2304, 0x78127d6e
0,     741888,     741888,     1152,     2304, 0x62e2788a
0,     768384,     768384,     1152,     2304, 0x29397ad9
0,     794880,     794880,     1152,     2304, 0x45da82d6
0,     821376,     821376,     1152,     2304, 0x8ed66e51
0,     847872,     847872,     1152,     2304, 0x660775cd
0,     874368,     874368,     1152,     2304, 0x802c767a
0,     900864,     900864,     1152,     2304, 0xcc055840
0,     927360,     927360,     1152,     2304, 0x701b7eaf
0,     953856,     953856,     1152,     2304, 0x8290749f
0,     980352,     980352,     1152,     2304, 0x2c7b7d30
0,    1006848,    1006848,     1152,     2304, 0xe4f17743
0,    1033344,    1033344,     1152,     2304, 0x0e747d6e
0,    1059840,    1059840,     1152,     2304, 0xbe7775a0
0,    1086336,    1086336,     1152,     2304, 0xcf797673
0,    1112832,    1112832,     1152,     2304, 0x29cb7800
0,    1139328,    1139328,     1152,     2304, 0xfc947890
0,    1165824,    1165824,     1152,     2304, 0x62757fc6
0,    1192320,    1192320,     1152,     2304, 0x098876d0
0,    1218816,    1218816,     1152,     2304, 0xa9567ee2
0,    1245312,    1245312,     1152,     2304, 0xe3bb9173
0,    1271808,    1271808,     1152,     2304, 0xcc2d6dee
0,    1298304,    1298304,     1152,     2304, 0xe94591ab
0,    1324800,    1324800,     1152,     2304, 0x5c7588de
0,    1351296,    1351296,     1152,     2304, 0xfd83643c
0,    1377792,    1377792,     1152,     2304, 0x528177f1
0,    1404288,    1404288,     1152,     2304, 0x65d08474
0,    1430784,    1430784,     1152,     2304, 0x738d765b
0,    1457280,    1457280,     1152,     2304, 0xdd3d810e
0,    1483776,    1483776,     1152,     2304, 0xef4f90d3
0,    1510272,    1510272,     1152,     2304, 0x61e28d43
0,    1536768,    1536768,     1152,     2304, 0x9a11796b
0,    1563264,    1563264,     1152,     2304, 0x96c97dcd
0,    1589760,    1589760,     1152,     2304, 0xa8fe8621
0,    1616256,    1616256,     1152,     2304, 0x499b7d38
0,    1642752,    1642752,     1152,     2304, 0xfcb078a9
0,    1669248,    1669248,     1152,     2304, 0x40d78651
0,    1695744,    1695744,     1152,     2304, 0xa4af7234
0,    1722240,    1722240,     1152,     2304, 0x6831870a
0,    1748736,    1748736,     1152,     2304, 0x030e7b9d
0,    1775232,    1775232,     1152,     2304, 0x445a75b6
0,    1801728,    1801728,     1152,     2304, 0x09857389
0,    1828224,    1828224,     1152,     2304, 0x0d018866
0,    1854720,    1854720,     1152,     2304, 0x2afe810a
0,    1881216,    1881216,     1152,     2304, 0x0bcf7c43
0,    1907712,    1907712,     1152,     2304, 0x13737c12
0,    1934208,    1934208,     1152,     2304, 0x716c7bba
0,    1960704,    1960704,     1152,     2304, 0xb801823b
0,    1987200,    1987200,     1152,     2304, 0x0fd573ee
0,    2013696,    2013696,     1152,     2304, 0xe1ab879c
0,    2040192,    2040192,     1152,     2304, 0x49e6764f
0,    2066688,    2066688,     1152,     2304, 0xd5f26ddc
0,    2093184,    2093184,     1152,     2304, 0x076775ff
0,    2119680,    2119680,     1152,     2304, 0xfbb86fce
0,    2146176,    2146176,     1152,     2304, 0x20c56858
0,    2172672,    2172672,     1152,     2304, 0x043e6891
0,    2199168,    2199168,     1152,     2304, 0x59648729
0,    2225664,    2225664,     1152,     2304, 0xd4907a63
0,    2252160,    2252160,     1152,     2304, 0xd0208a4c
0,    2278656,    2278656,     1152,     2304, 0xce968383
0,    2305152,    2305152,     1152,     2304, 0x3cfc7cd1
0,    2331648,    2331648,     1152,     2304, 0x628a7bf5
0,    2358144,    2358144,     1152,     2304, 0x9cfe8a4f
0,    2384640,    2384640,     1152,     2304, 0xdf6f7c6d
0,    2411136,    2411136,     1152,     2304, 0x6cf6882a
0,    2437632,    2437632,     1152,     2304, 0x099773a3
0,    2464128,    2464128,     1152,     2304, 0x4a1c7649
0,    2490624,    2490624,     1152,     2304, 0x31ea71cb
0,    2517120,    2517120,     1152,     2304, 0xed127ed9
0,    2543616,    2543616,     1152,     2304, 0x5b156954
0,    2570112,    2570112,     1152,     2304, 0xdd638532
0,    2596608,    2596608,     1152,     2304, 0xf1a271f2
0,    2623104,    2623104,     1152,     2304, 0x779184d7
0,    2649600,    2649600,     1152,     2304, 0x49a88aa8
0,    2676096,    2676096,     1152,     2304, 0xa11b7c90
0,    2702592,    2702592,     1152,     2304, 0xbf488274
0,    2729088,    2729088,     1152,     2304, 0x002f79a8
0,    2755584,    2755584,     1152,     2304, 0x0ed97e2f
0,    2782080,    2782080,     1152,     2304, 0x7845878f
0,    2808576,    2808576,     1152,     2304, 0x46d777dc
0,    2835072,    2835072,     1152,     2304, 0x8d0179e3
0,    2861568,    2861568,     1152,     2304, 0x38917f9f
0,    2888064,    2888064,     1152,     2304, 0x449876e7
0,    2914560,    2914560,     1152,     2304, 0x001a8769
0,    2941056,    2941056,     1152,     2304, 0x06c1826b
0,    2967552,    2967552,     1152,     2304, 0x41b68047
0,    2994048,    2994048,     1152,     2304, 0xeb9782c6
0,    3020544,    3020544,     1152,     2304, 0x7cd9719c
0,    3047040,    3047040,     1152,     2304, 0x3a4a767c
0,    3073536,    3073536,     1152,     2304, 0x7f887e81
0,    3100032,    3100032,     1152,     2304, 0xf75d714b
0,    3126528,    3126528,     1152,     2304, 0x33b57e9f
0,    3153024,    3153024,     1152,     2304, 0xc732749e
0,    3179520,    3179520,     1152,     2304, 0x386f7e1a
0,    3206016,    3206016,     1152,     2304, 0x6b9c767d
0,    3232512,    3232512,     1152,     2304, 0x701c83e5
0,    3259008,    3259008,     1152,     2304, 0xb92571e1
0,    3285504,    3285504,     1152,     2304, 0x833a84bc
0,    3312000,    3312000,     1152,     2304, 0x1b6984e0
0,    3338496,    3338496,     1152,     2304, 0x1b2474ba
0,    3364992,    3364992,     1152,     2304, 0xc22775a6
0,    3391488,    3391488,     1152,     2304, 0x3e8f7972
0,    3417984,    3417984,     1152,     2304, 0x17a28a65
0,    3444480,    3444480,     1152,     2304, 0x9b6178a4
0,    3470976,    3470976,     1152,     2304, 0x5d707873
0,    3497472,    3497472,     1152,     2304, 0x68e2645a
0,    3523968,    3523968,     1152,     2304, 0x1e377d28
0,    3550464,    3550464,     1152,     2304, 0x54b384be
0,    3576960,    3576960,     1152,     2304, 0x0617808c
0,    3603456,    3603456,     1152,     2304, 0xbc2b8a6c
0,    3629952,    3629952,     1152,     2304, 0x7ced7180
0,    3656448,    3656448,     1152,     2304, 0xf22180ab
0,    3682944,    3682944,     1152,     2304, 0xf13682c9
0,    3709440,    3709440,     1152,     2304, 0x7eff87fd
0,    3735936,    3735936,     1152,     2304, 0x5a0b5cec
0,    3762432,    3762432,     1152,     2304, 0x57c18906
0,    3788928,    3788928,     1152,     2304, 0xb55a6a16
0,    3815424,    3815424,     1152,     2304, 0xf2608371
0,    3841920,    3841920,     1152,     2304, 0x36df7576
0,    3868416,    3868416,     1152,     2304, 0xdb106fb4
0,    3894912,    3894912,     1152,     2304, 0x7e4f85d0
0,    3921408,    3921408,     1152,     2304, 0xe3ee78ab
0,    3947904,    3947904,     1152,     2304, 0xd36b7dc7
0,    3974400,    3974400,     1152,     2304, 0xadab7c5c
0,    4000896,    4000896,     1152,     2304, 0x70786f26
0,    4027392,    4027392,     1152,     2304, 0xcd5d717e
0,    4053888,    4053888,     1152,     2304, 0xc1a96f9a
0,    4080384,    4080384,     1152,     2304, 0xad777887
0,    4106880,    4106880,     1152,     2304, 0x98277c16
0,    4133376,    4133376,     1152,     2304, 0x868882c5
0,    4159872,    4159872,     1152,     2304, 0xc48092b9
0,    4186368,    4186368,     1152,     2304, 0x230069da
0,    4212864,    4212864,     1152,     2304, 0x14147ad6
0,    4239360,    4239360,     1152,     2304, 0xc9007172
0,    4265856,    4265856,     1152,     2304, 0x85d67bcc
0,    4292352,    4292352,     1152,     2304, 0x22418bab
0,    4318848,    4318848,     1152,     2304, 0xe53c8b71
0,    4345344,    4345344,     1152,     2304, 0x5a1a9053
0,    4371840,    4371840,     1152,     2304, 0x9cd179af
0,    4398336,    4398336,     1152,     2304, 0xbb3c7d72
0,    4424832,    4424832,     1152,     2304, 0x477a8677
0,    4451328,    4451328,     1152,     2304, 0xe3337834
0,    4477824,    4477824,     1152,     2304, 0x1cb56d77
0,    4504320,    4504320,     1152,     2304, 0xe89d6dac
0,    4530816,    4530816,     1152,     2304, 0xd468827e
0,    4557312,    4557312,     1152,     2304, 0xebc46b87
0,    4583808,    4583808,     1152,     2304, 0x5fbb78d2
0,    4610304,    4610304,     1152,     2304, 0xa1b483d6
0,    4636800,    4636800,     1152,     2304, 0x6fec7cab
0,    4663296,    4663296,     1152,     2304, 0xd86d6f6c
0,    4689792,    4689792,     1152,     2304, 0x8c2c7d51
0,    4716288,    4716288,     1152,     2304, 0xe8377cd7
0,    4742784,    4742784,     1152,     2304, 0xb57071b4
0,    4769280,    4769280,     1152,     2304, 0xc35c71fd
0,    4795776,    4795776,     1152,     2304, 0x789079e9
0,    4822272,    4822272,     1152,     2304, 0x413b710e
0,    4848768,    4848768,     1152,     2304, 0x82678332
0,    4875264,    4875264,     1152,     2304, 0xe1576e75
0,    4901760,    4901760,     1152,     2304, 0x7c0b7ad6
0,    4928256,    4928256,     1152,     2304, 0xc6b6786d
0,    4954752,    4954752,     1152,     2304, 0x736f7b89
0,    4981248,    4981248,     1152,     2304, 0x0ded72f1
0,    5007744,    5007744,     1152,     2304, 0xcb877a3c
0,    5034240,    5034240,     1152,     2304, 0x7c497d40
0,    5060736,    5060736,     1152,     2304, 0xaefc798c
0,    5087232,    5087232,     1152,     2304, 0x4cce748c
0,    5113728,    5113728,     1152,     2304, 0xaa187fbe
0,    5140224,    5140224,     1152,     2304, 0x1aa77db9
0,    5166720,    5166720,     1152,     2304, 0x9e0074b8
0,    5193216,    5193216,     1152,     2304, 0x74ee822b
0,    5219712,    5219712,     1152,     2304, 0x975c6ff6
0,    5246208,    5246208,     1152,     2304, 0xe1847bb4
0,    5272704,    5272704,     1152,     2304, 0xe0828777
0,    5299200,    5299200,     1152,     2304, 0xf4027205
0,    5325696,    5325696,     1152,     2304, 0x535e7a20
0,    5352192,    5352192,     1152,     2304, 0x5bd88404
0,    5378688,    5378688,     1152,     2304, 0xf29478b1
0,    5405184,    5405184,     1152,     2304, 0x9b7c7d88
0,    5431680,    5431680,     1152,     2304, 0xaeb07335
0,    5458176,    5458176,     1152,     2304, 0xbef06e08
0,    5484672,    5484672,     1152,     2304, 0x795f7b8c
0,    5511168,    5511168,     1152,     2304, 0x435a674d
0,    5537664,    5537664,     1152,     2304, 0xd8ee7a09
0,    5564160,    5564160,     1152,     2304, 0x9059812e
0,    5590656,    5590656,     1152,     2304, 0x7481744a
0,    5617152,    5617152,     1152,     2304, 0xdff27475
0,    5643648,    5643648,     1152,     2304, 0xb17783ab
0,    5670144,    5670144,     1152,     2304, 0x42e9706b
0,    5696640,    5696640,     1152,     2304, 0x9f0d86b4
0,    5723136,    5723136,     1152,     2304, 0x2963955f
0,    5749632,    5749632,     1152,     2304, 0x059a6957
0,    5776128,    5776128,     1152,     2304, 0x85948206
0,    5802624,    5802624,     1152,     2304, 0x185e8400
0,    5829120,    5829120,     1152,     2304, 0xe98e70df
0,    5855616,    5855616,     1152,     2304, 0x69057b27
0,    5882112,    5882112,     1152,     2304, 0x49e26f21
0,    5908608,    5908608,     1152,     2304, 0xb0867da5
0,    5935104,    5935104,     1152,     2304, 0x785980ff
0,    5961600,    5961600,     1152,     2304, 0xf4b774be
0,    5988096,    5988096,     1152,     2304, 0x63897e8c
0,    6014592,    6014592,     1152,     2304, 0x248b89af
0,    6041088,    6041088,     1152,     2304, 0xd3627c4a
0,    6067584,    6067584,     1152,     2304, 0x5a4d9349
0,    6094080,    6094080,     1152,     2304, 0xe2ce7c4c
0,    6120576,    6120576,     1152,     2304, 0x321f6c0b
0,    6147072,    6147072,     1152,     2304, 0x51ac74e0
0,    6173568,    6173568,     1152,     2304, 0x8efa91ba
0,    6200064,    6200064,     1152,     2304, 0x8b4b784c
0,    6226560,    6226560,     1152,     2304, 0xe9e4879e
0,    6253056,    6253056,     1152,     2304, 0x8dc28081
0,    6279552,    6279552,     1152,     2304, 0x44b477b0
0,    6306048,    6306048,     1152,     2304, 0xf7b67084
0,    6332544,    6332544,     1152,     2304, 0x4b198c17
0,    6359040,    6359040,     1152,     2304, 0x9c947194
0,    6385536,    6385536,     1152,     2304, 0x6eaa7f15
0,    6412032,    6412032,     1152,     2304, 0x119f7c1d
0,    6438528,    6438528,     1152,     2304, 0x157b7f43
0,    6465024,    6465024,     1152,     2304, 0xcd2e7acc
0,    6491520,    6491520,     1152,     2304, 0x97597247
0,    6518016,    6518016,     1152,     2304, 0x7ba06acb
0,    6544512,    6544512,     1152,     2304, 0x233c7995
0,    6571008,    6571008,     1152,     2304, 0x08e28587
0,    6597504,    6597504,     1152,     2304, 0x92be84b5
0,    6624000,    6624000,     1152,     2304, 0xbb857d43
0,    6650496,    6650496,     1152,     2304, 0x168e7c74
0,    6676992,    6676992,     1152,     2304, 0xac5465d9
0,    6703488,    6703488,     1152,     2304, 0x18f58831
0,    6729984,    6729984,     1152,     2304, 0x19b48196
0,    6756480,    6756480,     1152,     2304, 0x20297653
0,    6782976,    6782976,     1152,     2304, 0x93397a82
0,    6809472,    6809472,     1152,     2304, 0x65ea7deb
0,    6835968,    6835968,     1152,     2304, 0xd7316e20
0,    6862464,    6862464,     1152,     2304, 0x94107f2b
0,    6888960,    6888960,     1152,     2304, 0xec3b7dc6
0,    6915456,    6915456,     1152,     2304, 0x2d3783aa
0,    6941952,    6941952,     1152,     2304, 0x07e47340
0,    6968448,    6968448,     1152,     2304, 0xbc117893
0,    6994944,    6994944,     1152,     2304, 0x8bd97851
0,    7021440,    7021440,     1152,     2304, 0xc27376a9
0,    7047936,    7047936,     1152,     2304, 0x30d88c83
0,    7074432,    7074432,     1152,     2304, 0x19c2704c
0,    7100928,    7100928,     1152,     2304, 0x093b7b6e
0,    7127424,    7127424,     1152,     2304, 0x221a7349
0,    7153920,    7153920,     1152,     2304, 0xa4fd82cd
0,    7180416,    7180416,     1152,     2304, 0x762e6bc9
0,    7206912,    7206912,     1152,     2304, 0x270075d4
0,    7233408,    7233408,     1152,     2304, 0xa5f27b90
0,    7259904,    7259904,     1152,     2304, 0xf72e7edc
0,    7286400,    7286400,     1152,     2304, 0x42178486
0,    7312896,    7312896,     1152,     2304, 0x5f7978e8
0,    7339392,    7339392,     1152,     2304, 0x5d7c6703
0,    7365888,    7365888,     1152,     2304, 0x2c4483d5
0,    7392384,    7392384,     1152,     2304, 0x31bd951d
0,    7418880,    7418880,     1152,     2304, 0x99487af0
0,    7445376,    7445376,     1152,     2304, 0x0bd27ee7
0,    7471872,    7471872,     1152,     2304, 0xc3e07ac4
0,    7498368,    7498368,     1152,     2304, 0x98a16ba7
0,    7524864,    7524864,     1152,     2304, 0xd7a5747b
0,    7551360,    7551360,     1152,     2304, 0x96fb811c
0,    7577856,    7577856,     1152,     2304, 0x7cee8109
0,    7604352,    7604352,     1152,     2304, 0x52b18ba2
0,    7630848,    7630848,     1152,     2304, 0x33be8861
0,    7657344,    7657344,     1152,     2304, 0xf41282a0
0,    7683840,    7683840,     1152,     2304, 0xb4268993
0,    7710336,    7710336,     1152,     2304, 0x52126a1c
0,    7736832,    7736832,     1152,     2304, 0x050b6f7a
0,    7763328,    7763328,     1152,     2304, 0x67a26fc3
0,    7789824,    7789824,     1152,     2304, 0x966c7cf2
0,    7816320,    7816320,     1152,     2304, 0x22097750
0,    7842816,    7842816,     1152,     2304, 0xfbb0796c
0,    7869312,    7869312,     1152,     2304, 0xbd508964
0,    7895808,    7895808,     1152,     2304, 0xc24478d8
0,    7922304,    7922304,     1152,     2304, 0x3913769d
0,    7948800,    7948800,     1152,     2304, 0x8aab872f
0,    7975296,    7975296,     1152,     2304, 0x7cb4822f
0,    8001792,    8001792,     1152,     2304, 0xea318144
0,    8028288,    8028288,     1152,     2304, 0xaf0f86d2
0,    8054784,    8054784,     1152,     2304, 0x24f27598
0,    8081280,    8081280,     1152,     2304, 0xd76f6d40
0,    8107776,    8107776,     1152,     2304, 0x085071a7
0,    8134272,    8134272,     1152,     2304, 0x1d11704c
0,    8160768,    8160768,     1152,     2304, 0x21517cbd
0,    8187264,    8187264,     1152,     2304, 0xcdca8d32
0,    8213760,    8213760,     1152,     2304, 0x71c18433
0,    8240256,    8240256,     1152,     2304, 0xd39d7d81
0,    8266752,    8266752,     1152,     2304, 0x7a0d7a43
0,    8293248,    8293248,     1152,     2304, 0x007c8884
0,    8319744,    8319744,     1152,     2304, 0x403282d0
0,    8346240,    8346240,     1152,     2304, 0xe3737214
0,    8372736,    8372736,     1152,     2304, 0xaf906f47
0,    8399232,    8399232,     1152,     2304, 0x54f57b3b
0,    8425728,    8425728,     1152,     2304, 0x29be7791
0,    8452224,    8452224,     1152,     2304, 0xe3c663d5
0,    8478720,    8478720,     1152,     2304, 0xd7258238
0,    8505216,    8505216,     1152,     2304, 0x3719820d
0,    8531712,    8531712,     1152,     2304, 0xbe04814f
0,    8558208,    8558208,     1152,     2304, 0x556c815e
0,    8584704,    8584704,     1152,     2304, 0xb2447e10
0,    8611200,    8611200,     1152,     2304, 0x7c16867c
0,    8637696,    8637696,     1152,     2304, 0x6a7b78ed
0,    8664192,    8664192,     1152,     2304, 0x5d307b81
0,    8690688,    8690688,     1152,     2304, 0xaab680d3
0,    8717184,    8717184,     1152,     2304, 0xb5d37a23
0,    8743680,    8743680,     1152,     2304, 0x7f7d6f76
0,    8770176,    8770176,     1152,     2304, 0x317a8296
0,    8796672,    8796672,     1152,     2304, 0x8a987b3d
0,    8823168,    8823168,     1152,     2304, 0x4f317a27
0,    8849664,    8849664,     1152,     2304, 0xfc65852f
0,    8876160,    8876160,     1152,     2304, 0x40527719
0,    8902656,    8902656,     1152,     2304, 0x84988e13
0,    8929152,    8929152,     1152,     2304, 0x318b6ddc
0,    8955648,    8955648,     1152,     2304, 0x94cf7939
0,    8982144,    8982144,     1152,     2304, 0x6f22819d
0,    9008640,    9008640,     1152,     2304, 0xa7dd80a9
0,    9035136,    9035136,     1152,     2304, 0x1c7968fa
0,    9061632,    9061632,     1152,     2304, 0xd9937bae
0,    9088128,    9088128,     1152,     2304, 0xf7137cf9
0,    9114624,    9114624,     1152,     2304, 0xeadb84b5
0,    9141120,    9141120,     1152,     2304, 0x9a2390ac
0,    9167616,    9167616,     1152,     2304, 0xdb6a73f6
0,    9194112,    9194112,     1152,     2304, 0x69e07507
0,    9220608,    9220608,     1152,     2304, 0xbc8478b2
0,    9247104,    9247104,     1152,     2304, 0x32cf8638
0,    9273600,    9273600,     1152,     2304, 0x2b8d755a
0,    9300096,    9300096,     1152,     2304, 0x52e05bd2
0,    9326592,    9326592,     1152,     2304, 0x2aed8c49
0,    9353088,    9353088,     1152,     2304, 0x587a896e
0,    9379584,    9379584,     1152,     2304, 0x6dd87dee
0,    9406080,    9406080,     1152,     2304, 0xd2858338
0,    9432576,    9432576,     1152,     2304, 0xd90f7842
0,    9459072,    9459072,     1152,     2304, 0xd6fb6d4a
0,    9485568,    9485568,     1152,     2304, 0x85498aea
0,    9512064,    9512064,     1152,     2304, 0x18597790
0,    9538560,    9538560,     1152,     2304, 0x3cd78fea
0,    9565056,    9565056,     1152,     2304, 0x94377fbc
0,    9591552,    9591552,     1152,     2304, 0xf9db73f5
0,    9618048,    9618048,     1152,     2304, 0x14fb6fca
0,    9644544,    9644544,     1152,     2304, 0xe9d17d69
0,    9671040,    9671040,     1152,     2304, 0xdeb57286
0,    9697536,    9697536,     1152,     2304, 0xa5d37e17
0,    9724032,    9724032,     1152,     2304, 0xcf6882fb
0,    9750528,    9750528,     1152,     2304, 0x31758066
0,    9777024,    9777024,     1152,     2304, 0x6b4d8175
0,    9803520,    9803520,     1152,     2304, 0x2a3d7f8e
0,    9830016,    9830016,     1152,     2304, 0xc066743b
0,    9856512,    9856512,     1152,     2304, 0xcab88146
0,    9883008,    9883008,     1152,     2304, 0x2b4c6e13
0,    9909504,    9909504,     1152,     2304, 0x00b36b6f
0,    9936000,    9936000,     1152,     2304, 0x664a88d3
0,    9962496,    9962496,     1152,     2304, 0x18a66f76
0,    9988992,    9988992,     1152,     2304, 0x4f828a8b
0,   10015488,   10015488,     1152,     2304, 0x9cc7728e
0,   10041984,   10041984,     1152,     2304, 0xbe357936
0,   10068480,   10068480,     1152,     2304, 0x19878f8d
0,   10094976,   10094976,     1152,     2304, 0x227b7c71
0,   10121472,   10121472,     1152,     2304, 0xf7c879ec
0,   10147968,   10147968,     1152,     2304, 0x0bca7b50
0,   10174464,   10174464,     1152,     2304, 0xe4398304
0,   10200960,   10200960,     1152,     2304, 0xf5da75c7
0,   10227456,   10227456,     1152,     2304, 0x9f9070a3
0,   10253952,   10253952,     1152,     2304, 0x789076f6
0,   10280448,   10280448,     1152,     2304, 0x362977cc
0,   10306944,   10306944,     1152,     2304, 0x4d0a8928
0,   10333440,   10333440,     1152,     2304, 0x1bb767ec
0,   10359936,   10359936,     1152,     2304, 0xbe727fa5
0,   10386432,   10386432,     1152,     2304, 0x27f38347
0,   10412928,   10412928,     1152,     2304, 0x0a3c8783
0,   10439424,   10439424,     1152,     2304, 0x8249639c
0,   10465920,   10465920,     1152,     2304, 0x3b076f69
0,   10492416,   10492416,     1152,     2304, 0xd9597ee3
0,   10518912,   10518912,     1152,     2304, 0x026e7fad
0,   10545408,   10545408,     1152,     2304, 0xbd7a6de4
0,   10571904,   10571904,     1152,     2304, 0x7d718a4d
0,   10598400,   10598400,     1152,     2304, 0x1f5e83b4
0,   10624896,   10624896,     1152,     2304, 0x597d7755
0,   10651392,   10651392,     1152,     2304, 0x3fb080bd
0,   10677888,   10677888,     1152,     2304, 0xdcbd7b16
0,   10704384,   10704384,     1152,     2304, 0x5c48865f
0,   10730880,   10730880,     1152,     2304, 0xcda37ae8
0,   10757376,   10757376,     1152,     2304, 0x4810796d
0,   10783872,   10783872,     1152,     2304, 0x34317fd0
0,   10810368,   10810368,     1152,     2304, 0x5c0e7456
0,   10836864,   10836864,     1152,     2304, 0x44d78040
0,   10863360,   10863360,     1152,     2304, 0x88587882
0,   10889856,   10889856,     1152,     2304, 0x77687d5e
0,   10916352,   10916352,     1152,     2304, 0x116d68bb
0,   10942848,   10942848,     1152,     2304, 0x3e5b6f60
0,   10969344,   10969344,     1152,     2304, 0x64ea783c
0,   10995840,   10995840,     1152,     2304, 0x23547f7d
0,   11022336,   11022336,     1152,     2304, 0x2eee7892
0,   11048832,   11048832,     1152,     2304, 0xfb837cba
0,   11075328,   11075328,     1152,     2304, 0x86518209
0,   11101824,   11101824,     1152,     2304, 0x672f7bba
0,   11128320,   11128320,     1152,     2304, 0x6ab583fb
0,   11154816,   11154816,     1152,     2304, 0xc1297428
0,   11181312,   11181312,     1152,     2304, 0x164e7717
0,   11207808,   11207808,     1152,     2304, 0xb754976d
0,   11234304,   11234304,     1152,     2304, 0xb99d81b2
0,   11260800,   11260800,     1152,     2304, 0x79046fd6
0,   11287296,   11287296,     1152,     2304, 0x9a3f8426
0,   11313792,   11313792,     1152,     2304, 0x896371f5
0,   11340288,   11340288,     1152,     2304, 0x63d1799f
0,   11366784,   11366784,     1152,     2304, 0x4842844e
0,   11393280,   11393280,     1152,     2304, 0x850e8372
0,   11419776,   11419776,     1152,     2304, 0x85d07022
0,   11446272,   11446272,     1152,     2304, 0x9e6683d1
0,   11472768,   11472768,     1152,     2304, 0x301b8981
0,   11499264,   11499264,     1152,     2304, 0x1f1e98c5
0,   11525760,   11525760,     1152,     2304, 0xc8797b03
0,   11552256,   11552256,     1152,     2304, 0xf9d189f5
0,   11578752,   11578752,     1152,     2304, 0x0e0d88be
0,   11605248,   11605248,     1152,     2304, 0x6c1d7843
0,   11631744,   11631744,     1152,     2304, 0xd13b8a38
0,   11658240,   11658240,     1152,     2304, 0x9b8f773c
0,   11684736,   11684736,     1152,     2304, 0x9acd7309
0,   11711232,   11711232,     1152,     2304, 0x5e7d7d15
0,   11737728,   11737728,     1152,     2304, 0xf09d7640
0,   11764224,   11764224,     1152,     2304, 0xaebb718f
0,   11790720,   11790720,     1152,     2304, 0x0c8570f4
0,   11817216,   11817216,     1152,     2304, 0x3c93862c
0,   11843712,   11843712,     1152,     2304, 0xcee46696
0,   11870208,   11870208,     1152,     2304, 0x01ba7e20
0,   11896704,   11896704,     1152,     2304, 0x7fcb7a09
0,   11923200,   11923200,     1152,     2304, 0xddf18c14
0,   11949696,   11949696,     1152,     2304, 0xd2e97eeb
0,   11976192,   11976192,     1152,     2304, 0x514d8719
0,   12002688,   12002688,     1152,     2304, 0xe89279c9
0,   12029184,   12029184,     1152,     2304, 0x806d6a95
0,   12055680,   12055680,     1152,     2304, 0xbc7a8a60
0,   12082176,   12082176,     1152,     2304, 0x302f8fa8
0,   12108672,   12108672,     1152,     2304, 0xb136784c
0,   12135168,   12135168,     1152,     2304, 0x9b0f6aab
0,   12161664,   12161664,     1152,     2304, 0xd8e27582
0,   12188160,   12188160,     1152,     2304, 0xdaaf78b1
0,   12214656,   12214656,     1152,     2304, 0x65967f5f
0,   12241152,   12241152,     1152,     2304, 0x6f917aa4
0,   12267648,   12267648,     1152,     2304, 0x7f607444
0,   12294144,   12294144,     1152,     2304, 0xfd316f2c
0,   12320640,   12320640,     1152,     2304, 0x776e83c7
0,   12347136,   12347136,     1152,     2304, 0xb9c17e16
0,   12373632,   12373632,     1152,     2304, 0xdf287de8
0,   12400128,   12400128,     1152,     2304, 0xf33d96a3
0,   12426624,   12426624,     1152,     2304, 0xad216e5b
0,   12453120,   12453120,     1152,     2304, 0x4a328342
0,   12479616,   12479616,     1152,     2304, 0xcf3f8079
0,   12506112,   12506112,     1152,     2304, 0xb46f77b0
0,   12532608,   12532608,     1152,     2304, 0x3199713d
0,   12559104,   12559104,     1152,     2304, 0x5e667a0d
0,   12585600,   12585600,     1152,     2304, 0xa3047ae3
0,   12612096,   12612096,     1152,     2304, 0x9edf8594
0,   12638592,   12638592,     1152,     2304, 0xd16382d5
0,   12665088,   12665088,     1152,     2304, 0x6e838328
0,   12691584,   12691584,     1152,     2304, 0xa1f697c1
0,   12718080,   12718080,     1152,     2304, 0xefcc749c
0,   12744576,   12744576,     1152,     2304, 0x1f94839e
0,   12771072,   12771072,     1152,     2304, 0x429e7c5b
0,   12797568,   12797568,     1152,     2304, 0x9b59711c
0,   12824064,   12824064,     1152,     2304, 0xdac27323
0,   12850560,   12850560,     1152,     2304, 0xa4856d2b
0,   12877056,   12877056,     1152,     2304, 0x07a37498
0,   12903552,   12903552,     1152,     2304, 0xe1ce7512
0,   12930048,   12930048,     1152,     2304, 0x15e182c3
0,   12956544,   12956544,     1152,     2304, 0x0fa46b8c
0,   12983040,   12983040,     1152,     2304, 0xbdf07bfd
0,   13009536,   13009536,     1152,     2304, 0xe0238b2a
0,   13036032,   13036032,     1152,     2304, 0xab537267
0,   13062528,   13062528,     1152,     2304, 0xd46b75f3
0,   13089024,   13089024,     1152,     2304, 0xec73794b
0,   13115520,   13115520,     1152,     2304, 0x680580c1
0,   13142016,   13142016,     1152,     2304, 0x1ace8f6c
0,   13168512,   13168512,     1152,     2304, 0x19d583ac
0,   13195008,   13195008,     1152,     2304, 0x4b6b8105
0,   13221504,   13221504,     1152,     2304, 0x392a78b2
0,   13248000,   13248000,     1152,     2304, 0xd3916dad
0,   13274496,   13274496,     1152,     2304, 0x569c7a75
0,   13300992,   13300992,     1152,     2304, 0xf5ac814b
0,   13327488,   13327488,     1152,     2304, 0x18d77e98
0,   13353984,   13353984,     1152,     2304, 0x007074ce
0,   13380480,   13380480,     1152,     2304, 0x0fe38373
0,   13406976,   13406976,     1152,     2304, 0x5a967920
0,   13433472,   13433472,     1152,     2304, 0x22167501
0,   13459968,   13459968,     1152,     2304, 0xf0828cab
0,   13486464,   13486464,     1152,     2304, 0xaeec71b7
0,   13512960,   13512960,     1152,     2304, 0xc47b62ff
0,   13539456,   13539456,     1152,     2304, 0xab688478
0,   13565952,   13565952,     1152,     2304, 0xf35e7bd2
0,   13592448,   13592448,     1152,     2304, 0x9cff763e
0,   13618944,   13618944,     1152,     2304, 0x59568dc8
0,   13645440,   13645440,     1152,     2304, 0x51a278ac
0,   13671936,   13671936,     1152,     2304, 0xc08a6e68
0,   13698432,   13698432,     1152,     2304, 0xd3067ef4
0,   13724928,   13724928,     1152,     2304, 0x54767c49
0,   13751424,   13751424,     1152,     2304, 0xf8ff8386
0,   13777920,   13777920,     1152,     2304, 0xef267f63
0,   13804416,   13804416,     1152,     2304, 0xe2537cd9
0,   13830912,   13830912,     1152,     2304, 0x77a57680
0,   13857408,   13857408,     1152,     2304, 0x325c74ad
0,   13883904,   13883904,     1152,     2304, 0xd7fe87c4
0,   13910400,   13910400,     1152,     2304, 0x2e756310
0,   13936896,   13936896,     1152,     2304, 0x6a81796b
0,   13963392,   13963392,     1152,     2304, 0x2f057daf
0,   13989888,   13989888,     1152,     2304, 0xcd9f7c9d
0,   14016384,   14016384,     1152,     2304, 0xc91560a0
0,   14042880,   14042880,     1152,     2304, 0x962a91eb
0,   14069376,   14069376,     1152,     2304, 0xa0ff7416
0,   14095872,   14095872,     1152,     2304, 0xcb5c7dff
0,   14122368,   14122368,     1152,     2304, 0xd3527041
0,   14148864,   14148864,     1152,     2304, 0xc89d77c2
0,   14175360,   14175360,     1152,     2304, 0xe1ce7ccf
0,   14201856,   14201856,     1152,     2304, 0xe3417c4c
0,   14228352,   14228352,     1152,     2304, 0x3f1a7166
0,   14254848,   14254848,     1152,     2304, 0xcdcc7e23
0,   14281344,   14281344,     1152,     2304, 0x4e727e97
0,   14307840,   14307840,     1152,     2304, 0x53427ff1
0,   14334336,   14334336,     1152,     2304, 0x173f6ca9
0,   14360832,   14360832,     1152,     2304, 0x962887ec
0,   14387328,   14387328,     1152,     2304, 0xcbec67f4
0,   14413824,   14413824,     1152,     2304, 0x7a2c943d
0,   14440320,   14440320,     1152,     2304, 0x8b877570
0,   14466816,   14466816,     1152,     2304, 0xcf337323
0,   14493312,   14493312,     1152,     2304, 0x8c8682a4
0,   14519808,   14519808,     1152,     2304, 0x94c3753c
0,   14546304,   14546304,     1152,     2304, 0x86898d79
0,   14572800,   14572800,     1152,     2304, 0xdf667312
0,   14599296,   14599296,     1152,     2304, 0x062f8ba8
0,   14625792,   14625792,     1152,     2304, 0xa2c36f08
0,   14652288,   14652288,     1152,     2304, 0x5bca7358
0,   14678784,   14678784,     1152,     2304, 0x5648804d
0,   14705280,   14705280,     1152,     2304, 0xefac87c8
0,   14731776,   14731776,     1152,     2304, 0x66bf7dcf
0,   14758272,   14758272,     1152,     2304, 0x62ad73bc
0,   14784768,   14784768,     1152,     2304, 0x72fe630c
0,   14811264,   14811264,     1152,     2304, 0xeebe87da
0,   14837760,   14837760,     1152,     2304, 0x11c870cf
0,   14864256,   14864256,     1152,     2304, 0x18fb7c27
0,   14890752,   14890752,     1152,     2304, 0x39047145
0,   14917248,   14917248,     1152,     2304, 0xdcf07032
0,   14943744,   14943744,     1152,     2304, 0x61027c50
0,   14970240,   14970240,     1152,     2304, 0x6e2e89de
0,   14996736,   14996736,     1152,     2304, 0xc50c6d1d
0,   15023232,   15023232,     1152,     2304, 0xeed587ee
0,   15049728,   15049728,     1152,     2304, 0xe38269c7
0,   15076224,   15076224,     1152,     2304, 0xcf66806e
0,   15102720,   15102720,     1152,     2304, 0x2d3b7c1b
0,   15129216,   15129216,     1152,     2304, 0xa4127d48
0,   15155712,   15155712,     1152,     2304, 0x480b8325
0,   15182208,   15182208,     1152,     2304, 0xc1527221
0,   15208704,   15208704,     1152,     2304, 0x94c1769a
0,   15235200,   15235200,     1152,     2304, 0xcfb37271
0,   15261696,   15261696,     1152,     2304, 0x946d7a96
0,   15288192,   15288192,     1152,     2304, 0xdfc18e50
0,   15314688,   15314688,     1152,     2304, 0x10c48393
0,   15341184,   15341184,     1152,     2304, 0x58556b10
0,   15367680,   15367680,     1152,     2304, 0x997b7993
0,   15394176,   15394176,     1152,     2304, 0x4a787992
0,   15420672,   15420672,     1152,     2304, 0x11406c20
0,   15447168,   15447168,     1152,     2304, 0x04a4874a
0,   15473664,   15473664,     1152,     2304, 0xf3077164
0,   15500160,   15500160,     1152,     2304, 0x08ac80e3
0,   15526656,   15526656,     1152,     2304, 0x268370d0
0,   15553152,   15553152,     1152,     2304, 0x1d137778
0,   15579648,   15579648,     1152,     2304, 0xfa148e97
0,   15606144,   15606144,     1152,     2304, 0xec50717c
0,   15632640,   15632640,     1152,     2304, 0xcbf46b75
0,   15659136,   15659136,     1152,     2304, 0xd4168038
0,   15685632,   15685632,     1152,     2304, 0xdd9577f0
0,   15712128,   15712128,     1152,     2304, 0xc7077685
0,   15738624,   15738624,     1152,     2304, 0x34d25e91
0,   15765120,   15765120,     1152,     2304, 0x96537e6d
0,   15791616,   15791616,     1152,     2304, 0xb12e7940
0,   15818112,   15818112,     1152,     2304, 0x861d64c0
0,   15844608,   15844608,     1152,     2304, 0xa2bc64ed
0,   15871104,   15871104,     1152,     2304, 0x0c5f8261
0,   15897600,   15897600,     1152,     2304, 0x540584ff
0,   15924096,   15924096,     1152,     2304, 0xe8328b09
0,   15950592,   15950592,     1152,     2304, 0x1e777079
0,   15977088,   15977088,     1152,     2304, 0x453483b4
0,   16003584,   16003584,     1152,     2304, 0x1cab7a1e
0,   16030080,   16030080,     1152,     2304, 0xcb37856d
0,   16056576,   16056576,     1152,     2304, 0x5a4883ed
0,   16083072,   16083072,     1152,     2304, 0xd1f27cbf
0,   16109568,   16109568,     1152,     2304, 0x0d377a4d
0,   16136064,   16136064,     1152,     2304, 0x264e76df
0,   16162560,   16162560,     1152,     2304, 0x2a68771e
0,   16189056,   16189056,     1152,     2304, 0xcb317a31
0,   16215552,   16215552,     1152,     2304, 0xfc5d7a27
0,   16242048,   16242048,     1152,     2304, 0x6e067d96
0,   16268544,   16268544,     1152,     2304, 0x0c538560
0,   16295040,   16295040,     1152,     2304, 0xfbad717a
0,   16321536,   16321536,     1152,     2304, 0xf9fc7608
0,   16348032,   16348032,     1152,     2304, 0xb1817c8f
0,   16374528,   16374528,     1152,     2304, 0x57c37f82
0,   16401024,   16401024,     1152,     2304, 0x8cac8356
0,   16427520,   16427520,     1152,     2304, 0x97108186
0,   16454016,   16454016,     1152,     2304, 0x095d81bb
0,   16480512,   16480512,     1152,     2304, 0x475f6b2b
0,   16507008,   16507008,     1152,     2304, 0xdf7c8cc5
0,   16533504,   16533504,     1152,     2304, 0x979c77be
0,   16560000,   16560000,     1152,     2304, 0x56a7844b
0,   16586496,   16586496,     1152,     2304, 0x7ee46b21
0,   16612992,   16612992,     1152,     2304, 0x05b67220
0,   16639488,   16639488,     1152,     2304, 0x25787252
0,   16665984,   16665984,     1152,     2304, 0x8ad278ad
0,   16692480,   16692480,     1152,     2304, 0x67bd722e
0,   16718976,   16718976,     1152,     2304, 0x204f77be
0,   16745472,   16745472,     1152,     2304, 0x82d27ae2
0,   16771968,   16771968,     1152,     2304, 0x23fa82e4
0,   16798464,   16798464,     1152,     2304, 0xa9cf8159
0,   16824960,   16824960,     1152,     2304, 0x13f08749
0,   16851456,   16851456,     1152,     2304, 0xf84f71b5
0,   16877952,   16877952,     1152,     2304, 0x1cb777c8
0,   16904448,   16904448,     1152,     2304, 0x11236722
0,   16930944,   16930944,     1152,     2304, 0x10197cac
0,   16957440,   16957440,     1152,     2304, 0xbd417e65
0,   16983936,   16983936,     1152,     2304, 0x9a1c7d05
0,   17010432,   17010432,     1152,     2304, 0x4c3a85de
0,   17036928,   17036928,     1152,     2304, 0x03816eb7
0,   17063424,   17063424,     1152,     2304, 0x80186e6c
0,   17089920,   17089920,     1152,     2304, 0x5c097928
0,   17116416,   17116416,     1152,     2304, 0x94aa823d
0,   17142912,   17142912,     1152,     2304, 0xa1c27f04
0,   17169408,   17169408,     1152,     2304, 0x6ddb74a9
0,   17195904,   17195904,     1152,     2304, 0x5ea67901
0,   17222400,   17222400,     1152,     2304, 0xd710742d
0,   17248896,   17248896,     1152,     2304, 0xf8c27add
0,   17275392,   17275392,     1152,     2304, 0xf1717011
0,   17301888,   17301888,     1152,     2304, 0xb59072d0
0,   17328384,   17328384,     1152,     2304, 0xc8dc84a7
0,   17354880,   17354880,     1152,     2304, 0x33116737
0,   17381376,   17381376,     1152,     2304, 0x86216bdd
0,   17407872,   17407872,     1152,     2304, 0xa2f87866
0,   17434368,   17434368,     1152,     2304, 0x5d77771e
0,   17460864,   17460864,     1152,     2304, 0x5d8c77fd
0,   17487360,   17487360,     1152,     2304, 0x23cc89cb
0,   17513856,   17513856,     1152,     2304, 0x334e7407
0,   17540352,   17540352,     1152,     2304, 0x01c976ff
0,   17566848,   17566848,     1152,     2304, 0x3a3b7b15
0,   17593344,   17593344,     1152,     2304, 0xfa427de9
0,   17619840,   17619840,     1152,     2304, 0xbeaa7c91
0,   17646336,   17646336,     1152,     2304, 0xd6988b31
0,   17672832,   17672832,     1152,     2304, 0x4db47f80
0,   17699328,   17699328,     1152,     2304, 0xea687d9e
0,   17725824,   17725824,     1152,     2304, 0x1a6281ce
0,   17752320,   17752320,     1152,     2304, 0xe1958003
0,   17778816,   17778816,     1152,     2304, 0xb4ae7c5e
0,   17805312,   17805312,     1152,     2304, 0x28827c8a
0,   17831808,   17831808,     1152,     2304, 0x1fb88b25
0,   17858304,   17858304,     1152,     2304, 0x588d71e8
0,   17884800,   17884800,     1152,     2304, 0x68227c34
0,   17911296,   17911296,     1152,     2304, 0xee4d73e8
0,   17937792,   17937792,     1152,     2304, 0x69287c6d
0,   17964288,   17964288,     1152,     2304, 0xbb04926a
0,   17990784,   17990784,     1152,     2304, 0x89456cec
0,   18017280,   18017280,     1152,     2304, 0xabe18992
0,   18043776,   18043776,     1152,     2304, 0x50cc7f6c
0,   18070272,   18070272,     1152,     2304, 0x6d7270be
0,   18096768,   18096768,     1152,     2304, 0x664c6fef
0,   18123264,   18123264,     1152,     2304, 0x7f7982f3
0,   18149760,   18149760,     1152,     2304, 0x6ca170e9
0,   18176256,   18176256,     1152,     2304, 0x36437d5b
0,   18202752,   18202752,     1152,     2304, 0xfd2380e8
0,   18229248,   18229248,     1152,     2304, 0x2e3c6e9f
0,   18255744,   18255744,     1152,     2304, 0xc8427f3f
0,   18282240,   18282240,     1152,     2304, 0x962a79ad
0,   18308736,   18308736,     1152,     2304, 0xc9597c8b
0,   18335232,   18335232,     1152,     2304, 0x899580bb
0,   18361728,   18361728,     1152,     2304, 0x2d179dff
0,   18388224,   18388224,     1152,     2304, 0x4ac1707c
0,   18414720,   18414720,     1152,     2304, 0x32ea7e95
0,   18441216,   18441216,     1152,     2304, 0x265e9a2d
0,   18467712,   18467712,     1152,     2304, 0x1c6484d0
0,   18494208,   18494208,     1152,     2304, 0x39ae6884
0,   18520704,   18520704,     1152,     2304, 0x82ed7bc5
0,   18547200,   18547200,     1152,     2304, 0x556b7b3c
0,   18573696,   18573696,     1152,     2304, 0xb7f778dd
0,   18600192,   18600192,     1152,     2304, 0x74447d55
0,   18626688,   18626688,     1152,     2304, 0x0c66861e
0,   18653184,   18653184,     1152,     2304, 0x15ba7932
0,   18679680,   18679680,     1152,     2304, 0xb19170fc
0,   18706176,   18706176,     1152,     2304, 0x19d37551
0,   18732672,   18732672,     1152,     2304, 0xdc529142
0,   18759168,   18759168,     1152,     2304, 0xf2637e77
0,   18785664,   18785664,     1152,     2304, 0xd065944b
0,   18812160,   18812160,     1152,     2304, 0x22878123
0,   18838656,   18838656,     1152,     2304, 0xc21a8bf7
0,   18865152,   18865152,     1152,     2304, 0x2e3582dc
0,   18891648,   18891648,     1152,     2304, 0xd42f7987
0,   18918144,   18918144,     1152,     2304, 0x69b88236
0,   18944640,   18944640,     1152,     2304, 0x7c988f90
0,   18971136,   18971136,     1152,     2304, 0x2cd66ded
0,   18997632,   18997632,     1152,     2304, 0x3e65828b
0,   19024128,   19024128,     1152,     2304, 0x7e9871c9
0,   19050624,   19050624,     1152,     2304, 0xf1f2806b
0,   19077120,   19077120,     1152,     2304, 0xf5087c7b
0,   19103616,   19103616,     1152,     2304, 0x62b98097
0,   19130112,   19130112,     1152,     2304, 0xec457c43
0,   19156608,   19156608,     1152,     2304, 0x87af87a6
0,   19183104,   19183104,     1152,     2304, 0x97cc757d
0,   19209600,   19209600,     1152,     2304, 0x08ca76bd
0,   19236096,   19236096,     1152,     2304, 0x14ae7cbd
0,   19262592,   19262592,     1152,     2304, 0x1f79709a
0,   19289088,   19289088,     1152,     2304, 0x17948207
0,   19315584,   19315584,     1152,     2304, 0x16ee7228
0,   19342080,   19342080,     1152,     2304, 0x76cc82d7
0,   19368576,   19368576,     1152,     2304, 0x8f327a8e
0,   19395072,   19395072,     1152,     2304, 0x14ee7756
0,   19421568,   19421568,     1152,     2304, 0x15996d2f
0,   19448064,   19448064,     1152,     2304, 0x4c707d5c
0,   19474560,   19474560,     1152,     2304, 0x268c6fee
0,   19501056,   19501056,     1152,     2304, 0x6d838c76
0,   19527552,   19527552,     1152,     2304, 0xafa17e64
0,   19554048,   19554048,     1152,     2304, 0xb6546e66
0,   19580544,   19580544,     1152,     2304, 0x945d8b9f
0,   19607040,   19607040,     1152,     2304, 0x5bfb7446
0,   19633536,   19633536,     1152,     2304, 0xae6086f9
0,   19660032,   19660032,     1152,     2304, 0xa01380cd
0,   19686528,   19686528,     1152,     2304, 0x06f0828f
0,   19713024,   19713024,     1152,     2304, 0x0ae07176
0,   19739520,   19739520,     1152,     2304, 0x66f07522
0,   19766016,   19766016,     1152,     2304, 0x44018106
0,   19792512,   19792512,     1152,     2304, 0x8cd283da
0,   19819008,   19819008,     1152,     2304, 0x14257f45
0,   19845504,   19845504,     1152,     2304, 0x04979537
0,   19872000,   19872000,     1152,     2304, 0x8b5f797c
0,   19898496,   19898496,     1152,     2304, 0x12d67493
0,   19924992,   19924992,     1152,     2304, 0xc8886a25
0,   19951488,   19951488,     1152,     2304, 0x614b803a
0,   19977984,   19977984,     1152,     2304, 0x75667d35
0,   20004480,   20004480,     1152,     2304, 0xe42c7b00
0,   20030976,   20030976,     1152,     2304, 0x37787927
0,   20057472,   20057472,     1152,     2304, 0x85db8409
0,   20083968,   20083968,     1152,     2304, 0x823b822c
0,   20110464,   20110464,     1152,     2304, 0xa1658479
0,   20136960,   20136960,     1152,     2304, 0xdbe58ff7
0,   20163456,   20163456,     1152,     2304, 0x725175e2
0,   20189952,   20189952,     1152,     2304, 0xb2ae7741
0,   20216448,   20216448,     1152,     2304, 0x4de169e4
0,   20242944,   20242944,     1152,     2304, 0x3cb18530
0,   20269440,   20269440,     1152,     2304, 0x5a0c5e7b
0,   20295936,   20295936,     1152,     2304, 0x4e1f68b6
0,   20322432,   20322432,     1152,     2304, 0x9a0c7525
0,   20348928,   20348928,     1152,     2304, 0x86ae6a04
0,   20375424,   20375424,     1152,     2304, 0xf508877c
0,   20401920,   20401920,     1152,     2304, 0x29746d7c
0,   20428416,   20428416,     1152,     2304, 0x24078edb
0,   20454912,   20454912,     1152,     2304, 0x4f9784d2
0,   20481408,   20481408,     1152,     2304, 0x24186e95
0,   20507904,   20507904,     1152,     2304, 0xd1927b28
0,   20534400,   20534400,     1152,     2304, 0xc77283d5
0,   20560896,   20560896,     1152,     2304, 0xc0ad73f8
0,   20587392,   20587392,     1152,     2304, 0x0de78524
0,   20613888,   20613888,     1152,     2304, 0x8b0061dc
0,   20640384,   20640384,     1152,     2304, 0x37c77ad6
0,   20666880,   20666880,     1152,     2304, 0x5eae7410
0,   20693376,   20693376,     1152,     2304, 0x72d97ab5
0,   20719872,   20719872,     1152,     2304, 0x1afd8745
0,   20746368,   20746368,     1152,     2304, 0xe30b7c9b
0,   20772864,   20772864,     1152,     2304, 0xe86480b3
0,   20799360,   20799360,     1152,     2304, 0xb9c77a4e
0,   20825856,   20825856,     1152,     2304, 0x64508f2a
0,   20852352,   20852352,     1152,     2304, 0x839a74ed
0,   20878848,   20878848,     1152,     2304, 0x12147a5d
0,   20905344,   20905344,     1152,     2304, 0x33b07d3b
0,   20931840,   20931840,     1152,     2304, 0x65e67731
0,   20958336,   20958336,     1152,     2304, 0x8d1c8191
0,   20984832,   20984832,     1152,     2304, 0xada17701
0,   21011328,   21011328,     1152,     2304, 0x49d47f6c
0,   21037824,   21037824,     1152,     2304, 0x5df97989
0,   21064320,   21064320,     1152,     2304, 0x0db17ad9
0,   21090816,   21090816,     1152,     2304, 0x0d3281d7
0,   21117312,   21117312,     1152,     2304, 0x2503704f
0,   21143808,   21143808,     1152,     2304, 0xdf7c73d0
0,   21170304,   21170304,     1152,     2304, 0x93dd737c
0,   21196800,   21196800,     1152,     2304, 0x48ed5740
0,   21223296,   21223296,     1152,     2304, 0x6d477eaf
0,   21249792,   21249792,     1152,     2304, 0xe72373a1
0,   21276288,   21276288,     1152,     2304, 0x7d3e7e2e
0,   21302784,   21302784,     1152,     2304, 0x0d167743
0,   21329280,   21329280,     1152,     2304, 0xc2d97f6c
0,   21355776,   21355776,     1152,     2304, 0xc66175a0
0,   21382272,   21382272,     1152,     2304, 0xd0127475
0,   21408768,   21408768,     1152,     2304, 0xdbf57801
0,   21435264,   21435264,     1152,     2304, 0x52b47a8e
0,   21461760,   21461760,     1152,     2304, 0xc96b80c5
0,   21488256,   21488256,     1152,     2304, 0x070c76cf
0,   21514752,   21514752,     1152,     2304, 0x2aa07ee2
0,   21541248,   21541248,     1152,     2304, 0x04059074
0,   21567744,   21567744,     1152,     2304, 0x228f6def
0,   21594240,   21594240,     1152,     2304, 0x927893a8
0,   21620736,   21620736,     1152,     2304, 0x581a87df
0,   21647232,   21647232,     1152,     2304, 0x0d3f653c
0,   21673728,   21673728,     1152,     2304, 0xc0e775f3
0,   21700224,   21700224,     1152,     2304, 0x41d98473
0,   21726720,   21726720,     1152,     2304, 0x68fb775a
0,   21753216,   21753216,     1152,     2304, 0x81e0810e
0,   21779712,   21779712,     1152,     2304, 0xf35790d3
0,   21806208,   21806208,     1152,     2304, 0xc1468c45
0,   21832704,   21832704,     1152,     2304, 0x6949796a
0,   21859200,   21859200,     1152,     2304, 0xa0bb7dcd
0,   21885696,   21885696,     1152,     2304, 0x50af8424
0,   21912192,   21912192,     1152,     2304, 0x449b7d37
0,   21938688,   21938688,     1152,     2304, 0xcf2779a8
0,   21965184,   21965184,     1152,     2304, 0x069d894e
0,   21991680,   21991680,     1152,     2304, 0x41bd7334
0,   22018176,   22018176,     1152,     2304, 0x0dfd8c05
0,   22044672,   22044672,     1152,     2304, 0x2ce27b9d
0,   22071168,   22071168,     1152,     2304, 0x422875b5
0,   22097664,   22097664,     1152,     2304, 0xd5297389
0,   22124160,   22124160,     1152,     2304, 0x49ed8668
0,   22150656,   22150656,     1152,     2304, 0x2a9a810b
0,   22177152,   22177152,     1152,     2304, 0x5a3f7b43
0,   22203648,   22203648,     1152,     2304, 0x32087c12
0,   22230144,   22230144,     1152,     2304, 0x759c7bba
0,   22256640,   22256640,     1152,     2304, 0x5b26823b
0,   22283136,   22283136,     1152,     2304, 0xeeb872ef
0,   22309632,   22309632,     1152,     2304, 0x6eb0869d
0,   22336128,   22336128,     1152,     2304, 0x4b3e764f
0,   22362624,   22362624,     1152,     2304, 0x30a66fdb
0,   22389120,   22389120,     1152,     2304, 0x958374ff
0,   22415616,   22415616,     1152,     2304, 0x411b71cc
0,   22442112,   22442112,     1152,     2304, 0x80136759
0,   22468608,   22468608,     1152,     2304, 0x05ed6793
0,   22495104,   22495104,     1152,     2304, 0x48f18827
0,   22521600,   22521600,     1152,     2304, 0xb40d7866
0,   22548096,   22548096,     1152,     2304, 0xcad18c4a
0,   22574592,   22574592,     1152,     2304, 0x9ad68582
0,   22601088,   22601088,     1152,     2304, 0x3ad17fce
0,   22627584,   22627584,     1152,     2304, 0x824b7af6
0,   22654080,   22654080,     1152,     2304, 0xcc9d894f
0,   22680576,   22680576,     1152,     2304, 0x46167a70
0,   22707072,   22707072,     1152,     2304, 0x2479872a
0,   22733568,   22733568,     1152,     2304, 0x58cb72a5
0,   22760064,   22760064,     1152,     2304, 0x01957747
0,   22786560,   22786560,     1152,     2304, 0x6df172cb
0,   22813056,   22813056,     1152,     2304, 0x9ebd7ed9
0,   22839552,   22839552,     1152,     2304, 0x89436a53
0,   22866048,   22866048,     1152,     2304, 0xcce78433
0,   22892544,   22892544,     1152,     2304, 0x1b7a70f2
0,   22919040,   22919040,     1152,     2304, 0x530584d7
0,   22945536,   22945536,     1152,     2304, 0xda158aa9
0,   22972032,   22972032,     1152,     2304, 0xe85e7b90
0,   22998528,   22998528,     1152,     2304, 0xa8ac8176
0,   23025024,   23025024,     1152,     2304, 0xe43578a9
0,   23051520,   23051520,     1152,     2304, 0x9ecc7c30
0,   23078016,   23078016,     1152,     2304, 0x1cbd8591
0,   23104512,   23104512,     1152,     2304, 0x84917bd9
0,   23131008,   23131008,     1152,     2304, 0xea8477e4
0,   23157504,   23157504,     1152,     2304, 0xf50c7ea1
0,   23184000,   23184000,     1152,     2304, 0xc85e76e7
0,   23210496,   23210496,     1152,     2304, 0xa5148768
0,   23236992,   23236992,     1152,     2304, 0x2bd5846a
0,   23263488,   23263488,     1152,     2304, 0x1cd88641
0,   23289984,   23289984,     1152,     2304, 0x04b883c5
0,   23316480,   23316480,     1152,     2304, 0x5bf1719b
0,   23342976,   23342976,     1152,     2304, 0x0abe777c
0,   23369472,   23369472,     1152,     2304, 0xc74a7f7f
0,   23395968,   23395968,     1152,     2304, 0xd36a724b
0,   23422464,   23422464,     1152,     2304, 0x4ae67e9e
0,   23448960,   23448960,     1152,     2304, 0xfb6173a0
0,   23475456,   23475456,     1152,     2304, 0x31d77e19
0,   23501952,   23501952,     1152,     2304, 0x6153767d
0,   23528448,   23528448,     1152,     2304, 0xe40d84e4
0,   23554944,   23554944,     1152,     2304, 0xc8ef71e2
0,   23581440,   23581440,     1152,     2304, 0xdeca81be
0,   23607936,   23607936,     1152,     2304, 0x75da85df
0,   23634432,   23634432,     1152,     2304, 0x6c8e71bd
0,   23660928,   23660928,     1152,     2304, 0x6f8576a4
0,   23687424,   23687424,     1152,     2304, 0xe6637b71
0,   23713920,   23713920,     1152,     2304, 0xddfe8866
0,   23740416,   23740416,     1152,     2304, 0xa08578a5
0,   23766912,   23766912,     1152,     2304, 0x72af7873
0,   23793408,   23793408,     1152,     2304, 0xb550615c
0,   23819904,   23819904,     1152,     2304, 0x9ef87d28
0,   23846400,   23846400,     1152,     2304, 0xe30d83bf
0,   23872896,   23872896,     1152,     2304, 0xf030818c
0,   23899392,   23899392,     1152,     2304, 0x1e23896c
0,   23925888,   23925888,     1152,     2304, 0xf4c87180
0,   23952384,   23952384,     1152,     2304, 0xe34181aa
0,   23978880,   23978880,     1152,     2304, 0x660681cb
0,   24005376,   24005376,     1152,     2304, 0x7ebb87fc
0,   24031872,   24031872,     1152,     2304, 0xa8305eeb
0,   24058368,   24058368,     1152,     2304, 0xea898906
0,   24084864,   24084864,     1152,     2304, 0x342b6c13
0,   24111360,   24111360,     1152,     2304, 0x7fd18372
0,   24137856,   24137856,     1152,     2304, 0x965c7377
0,   24164352,   24164352,     1152,     2304, 0xb53b70b3
0,   24190848,   24190848,     1152,     2304, 0xd54884d1
0,   24217344,   24217344,     1152,     2304, 0x546d77ac
0,   24243840,   24243840,     1152,     2304, 0xd7a77dc7
0,   24270336,   24270336,     1152,     2304, 0x4b0e7c5c
0,   24296832,   24296832,     1152,     2304, 0x346d7026
0,   24323328,   24323328,     1152,     2304, 0x3f346e81
0,   24349824,   24349824,     1152,     2304, 0x3f167098
0,   24376320,   24376320,     1152,     2304, 0x1c857987
0,   24402816,   24402816,     1152,     2304, 0xf9317c16
0,   24429312,   24429312,     1152,     2304, 0x25ea82c4
0,   24455808,   24455808,     1152,     2304, 0x2b0f90bb
0,   24482304,   24482304,     1152,     2304, 0x999668db
0,   24508800,   24508800,     1152,     2304, 0x9a0676da
0,   24535296,   24535296,     1152,     2304, 0x97a87172
0,   24561792,   24561792,     1152,     2304, 0x323d7ace
0,   24588288,   24588288,     1152,     2304, 0x1b538baa
0,   24614784,   24614784,     1152,     2304, 0xeb208b72
0,   24641280,   24641280,     1152,     2304, 0x36c69152
0,   24667776,   24667776,     1152,     2304, 0x570c7bac
0,   24694272,   24694272,     1152,     2304, 0xd7287c72
0,   24720768,   24720768,     1152,     2304, 0xc4d78776
0,   24747264,   24747264,     1152,     2304, 0xdcbb7735
0,   24773760,   24773760,     1152,     2304, 0x08066d78
0,   24800256,   24800256,     1152,     2304, 0x5cb96bad
0,   24826752,   24826752,     1152,     2304, 0x30d58180
0,   24853248,   24853248,     1152,     2304, 0x3ac96b87
0,   24879744,   24879744,     1152,     2304, 0x1fc878d2
0,   24906240,   24906240,     1152,     2304, 0x2c7c85d4
0,   24932736,   24932736,     1152,     2304, 0x6c307caa
0,   24959232,   24959232,     1152,     2304, 0x647b6d6e
0,   24985728,   24985728,     1152,     2304, 0xfbef7e51
0,   25012224,   25012224,     1152,     2304, 0x27867bd7
0,   25038720,   25038720,     1152,     2304, 0xa2b875b1
0,   25065216,   25065216,     1152,     2304, 0xc7dd73fb
0,   25091712,   25091712,     1152,     2304, 0x717e79e9
0,   25118208,   25118208,     1152,     2304, 0xfecb710d
0,   25144704,   25144704,     1152,     2304, 0xa5308333
0,   25171200,   25171200,     1152,     2304, 0x92fe6b77
0,   25197696,   25197696,     1152,     2304, 0x7db17ad6
0,   25224192,   25224192,     1152,     2304, 0x1248786d
0,   25250688,   25250688,     1152,     2304, 0xf3647a8a
0,   25277184,   25277184,     1152,     2304, 0x7b2173f0
0,   25303680,   25303680,     1152,     2304, 0xfd1f7a3c
0,   25330176,   25330176,     1152,     2304, 0x09e57f3e
0,   25356672,   25356672,     1152,     2304, 0x13d7798d
0,   25383168,   25383168,     1152,     2304, 0x7d4d758a
0,   25409664,   25409664,     1152,     2304, 0xdf1a80be
0,   25436160,   25436160,     1152,     2304, 0xb91b7cb9
0,   25462656,   25462656,     1152,     2304, 0x102e73ba
0,   25489152,   25489152,     1152,     2304, 0x8dce8428
0,   25515648,   25515648,     1152,     2304, 0xdf9070f6
0,   25542144,   25542144,     1152,     2304, 0x27d77bb4
0,   25568640,   25568640,     1152,     2304, 0x2f8a8579
0,   25595136,   25595136,     1152,     2304, 0xd1e27204
0,   25621632,   25621632,     1152,     2304, 0x4f087920
0,   25648128,   25648128,     1152,     2304, 0x69f58306
0,   25674624,   25674624,     1152,     2304, 0xfc7378b0
0,   25701120,   25701120,     1152,     2304, 0x8b167d89
0,   25727616,   25727616,     1152,     2304, 0x0c867235
0,   25754112,   25754112,     1152,     2304, 0xc3126e09
0,   25780608,   25780608,     1152,     2304, 0x7d097d89
0,   25807104,   25807104,     1152,     2304, 0x73dc664e
0,   25833600,   25833600,     1152,     2304, 0xdc247a0a
0,   25860096,   25860096,     1152,     2304, 0xaa8d7f2f
0,   25886592,   25886592,     1152,     2304, 0x9a1d744b
0,   25913088,   25913088,     1152,     2304, 0xd9e87475
0,   25939584,   25939584,     1152,     2304, 0xf6f182ab
0,   25966080,   25966080,     1152,     2304, 0x4937706b
0,   25992576,   25992576,     1152,     2304, 0x837189b1
0,   26019072,   26019072,     1152,     2304, 0xd565975d
0,   26045568,   26045568,     1152,     2304, 0xc6156a56
0,   26072064,   26072064,     1152,     2304, 0xcd9c8107
0,   26098560,   26098560,     1152,     2304, 0x1f868400
0,   26125056,   26125056,     1152,     2304, 0xeddb71e0
0,   26151552,   26151552,     1152,     2304, 0x5fa2782a
0,   26178048,   26178048,     1152,     2304, 0x9b076e22
0,   26204544,   26204544,     1152,     2304, 0x90027ba7
0,   26231040,   26231040,     1152,     2304, 0x40a481fd
0,   26257536,   26257536,     1152,     2304, 0x240873bf
0,   26284032,   26284032,     1152,     2304, 0x28cd7d8e
0,   26310528,   26310528,     1152,     2304, 0x5d4287b0
0,   26337024,   26337024,     1152,     2304, 0xf9567c4b
0,   26363520,   26363520,     1152,     2304, 0x67dd924a
0,   26390016,   26390016,     1152,     2304, 0x33d37b4c
0,   26416512,   26416512,     1152,     2304, 0x37316d0b
0,   26443008,   26443008,     1152,     2304, 0x43a877dc
0,   26469504,   26469504,     1152,     2304, 0x44fc90bc
0,   26496000,   26496000,     1152,     2304, 0x90f5774c
0,   26522496,   26522496,     1152,     2304, 0x106e85a0
0,   26548992,   26548992,     1152,     2304, 0xb78b7f83
0,   26575488,   26575488,     1152,     2304, 0x3c3a77af
0,   26601984,   26601984,     1152,     2304, 0x7a5f7282
0,   26628480,   26628480,     1152,     2304, 0x164d891a
0,   26654976,   26654976,     1152,     2304, 0x930a7194
0,   26681472,   26681472,     1152,     2304, 0xb2628013
0,   26707968,   26707968,     1152,     2304, 0x3adf7e1c
0,   26734464,   26734464,     1152,     2304, 0x48627c45
0,   26760960,   26760960,     1152,     2304, 0xa3367cca
0,   26787456,   26787456,     1152,     2304, 0x9cf77248
0,   26813952,   26813952,     1152,     2304, 0x75a86acb
0,   26840448,   26840448,     1152,     2304, 0x75487698
0,   26866944,   26866944,     1152,     2304, 0xd65b8389
0,   26893440,   26893440,     1152,     2304, 0xb71d84b5
0,   26919936,   26919936,     1152,     2304, 0xdca87e42
0,   26946432,   26946432,     1152,     2304, 0x44dd7d72
0,   26972928,   26972928,     1152,     2304, 0xb29465da
0,   26999424,   26999424,     1152,     2304, 0x88ed8930
0,   27025920,   27025920,     1152,     2304, 0xabdd8096
0,   27052416,   27052416,     1152,     2304, 0xe5f57653
0,   27078912,   27078912,     1152,     2304, 0x7c777984
0,   27105408,   27105408,     1152,     2304, 0x631d7deb
0,   27131904,   27131904,     1152,     2304, 0x70d36e1f
0,   27158400,   27158400,     1152,     2304, 0x412c802b
0,   27184896,   27184896,     1152,     2304, 0xacc281c1
0,   27211392,   27211392,     1152,     2304, 0x569d86a8
0,   27237888,   27237888,     1152,     2304, 0x5c69743f
0,   27264384,   27264384,     1152,     2304, 0x29637794
0,   27290880,   27290880,     1152,     2304, 0x0d1b7a4f
0,   27317376,   27317376,     1152,     2304, 0xfc6978a6
0,   27343872,   27343872,     1152,     2304, 0x9b178987
0,   27370368,   27370368,     1152,     2304, 0xe436714a
0,   27396864,   27396864,     1152,     2304, 0x783a7b6e
0,   27423360,   27423360,     1152,     2304, 0x6ff16f4e
0,   27449856,   27449856,     1152,     2304, 0x9fd582cc
0,   27476352,   27476352,     1152,     2304, 0xff0d6bc9
0,   27502848,   27502848,     1152,     2304, 0x6f4975d5
0,   27529344,   27529344,     1152,     2304, 0x94a77a90
0,   27555840,   27555840,     1152,     2304, 0x764f80db
0,   27582336,   27582336,     1152,     2304, 0x68e88782
0,   27608832,   27608832,     1152,     2304, 0x91a378e8
0,   27635328,   27635328,     1152,     2304, 0x29f26903
0,   27661824,   27661824,     1152,     2304, 0xc3b684d4
0,   27688320,   27688320,     1152,     2304, 0x7d95921f
0,   27714816,   27714816,     1152,     2304, 0x876a7ded
0,   27741312,   27741312,     1152,     2304, 0x0fbe7ee8
0,   27767808,   27767808,     1152,     2304, 0x7d0f78c5
0,   27794304,   27794304,     1152,     2304, 0xce906ba8
0,   27820800,   27820800,     1152,     2304, 0xd281747b
0,   27847296,   27847296,     1152,     2304, 0xec38811b
0,   27873792,   27873792,     1152,     2304, 0x8170810a
0,   27900288,   27900288,     1152,     2304, 0x4d858ba2
0,   27926784,   27926784,     1152,     2304, 0x8c798662
0,   27953280,   27953280,     1152,     2304, 0x23a8879b
0,   27979776,   27979776,     1152,     2304, 0x9d0c8894
0,   28006272,   28006272,     1152,     2304, 0xf07c681f
0,   28032768,   28032768,     1152,     2304, 0x03ab6f7a
0,   28059264,   28059264,     1152,     2304, 0x88c170c2
0,   28085760,   28085760,     1152,     2304, 0xeb977bf3
0,   28112256,   28112256,     1152,     2304, 0x33b6774f
0,   28138752,   28138752,     1152,     2304, 0x534c776e
0,   28165248,   28165248,     1152,     2304, 0x33c4826a
0,   28191744,   28191744,     1152,     2304, 0xdb9878d8
0,   28218240,   28218240,     1152,     2304, 0xeffd789b
0,   28244736,   28244736,     1152,     2304, 0x2cc9862f
0,   28271232,   28271232,     1152,     2304, 0x9bf18131
0,   28297728,   28297728,     1152,     2304, 0xfa078144
0,   28324224,   28324224,     1152,     2304, 0x922885d2
0,   28350720,   28350720,     1152,     2304, 0x29ad7796
0,   28377216,   28377216,     1152,     2304, 0x62766f3f
0,   28403712,   28403712,     1152,     2304, 0x72a873a5
0,   28430208,   28430208,     1152,     2304, 0x65176e4d
0,   28456704,   28456704,     1152,     2304, 0x75447cbd
0,   28483200,   28483200,     1152,     2304, 0x83528e32
0,   28509696,   28509696,     1152,     2304, 0x0c758531
0,   28536192,   28536192,     1152,     2304, 0x4a5c7a84
0,   28562688,   28562688,     1152,     2304, 0xd5937648
0,   28589184,   28589184,     1152,     2304, 0xef5c8983
0,   28615680,   28615680,     1152,     2304, 0x24b281d0
0,   28642176,   28642176,     1152,     2304, 0xc0af7017
0,   28668672,   28668672,     1152,     2304, 0xf1cc7145
0,   28695168,   28695168,     1152,     2304, 0x7ddb7a3b
0,   28721664,   28721664,     1152,     2304, 0xd2e57692
0,   28748160,   28748160,     1152,     2304, 0x7abc61d6
0,   28774656,   28774656,     1152,     2304, 0x44a68338
0,   28801152,   28801152,     1152,     2304, 0x9cad810e
0,   28827648,   28827648,     1152,     2304, 0xbf3a7f51
0,   28854144,   28854144,     1152,     2304, 0x52ac815e
0,   28880640,   28880640,     1152,     2304, 0xdf327e10
0,   28907136,   28907136,     1152,     2304, 0x797c867b
0,   28933632,   28933632,     1152,     2304, 0x685b79ec
0,   28960128,   28960128,     1152,     2304, 0x60267b82
0,   28986624,   28986624,     1152,     2304, 0xe70e7fd4
0,   29013120,   29013120,     1152,     2304, 0xaf197a22
0,   29039616,   29039616,     1152,     2304, 0xf5e57075
0,   29066112,   29066112,     1152,     2304, 0xa86f8197
0,   29092608,   29092608,     1152,     2304, 0x922c7b3d
0,   29119104,   29119104,     1152,     2304, 0x8e3b7929
0,   29145600,   29145600,     1152,     2304, 0x816f862d
0,   29172096,   29172096,     1152,     2304, 0xc09c761a
0,   29198592,   29198592,     1152,     2304, 0xf1cd9010
0,   29225088,   29225088,     1152,     2304, 0xcf5c72d8
0,   29251584,   29251584,     1152,     2304, 0x0e607a38
0,   29278080,   29278080,     1152,     2304, 0x6cb0819c
0,   29304576,   29304576,     1152,     2304, 0x9e2880aa
0,   29331072,   29331072,     1152,     2304, 0xb46f69f9
0,   29357568,   29357568,     1152,     2304, 0xbc807eab
0,   29384064,   29384064,     1152,     2304, 0x91237cf9
0,   29410560,   29410560,     1152,     2304, 0xb6bf82b6
0,   29437056,   29437056,     1152,     2304, 0xfcd58daf
0,   29463552,   29463552,     1152,     2304, 0x53b176f4
0,   29490048,   29490048,     1152,     2304, 0xc79d7507
0,   29516544,   29516544,     1152,     2304, 0x810677b2
0,   29543040,   29543040,     1152,     2304, 0x13148737
0,   29569536,   29569536,     1152,     2304, 0x2eb5755a
0,   29596032,   29596032,     1152,     2304, 0x5bec5cd2
0,   29622528,   29622528,     1152,     2304, 0x66c68d47
0,   29649024,   29649024,     1152,     2304, 0x55d18770
0,   29675520,   29675520,     1152,     2304, 0x13997def
0,   29702016,   29702016,     1152,     2304, 0x23cd8437
0,   29728512,   29728512,     1152,     2304, 0x5cd07942
0,   29755008,   29755008,     1152,     2304, 0x43ab6b4c
0,   29781504,   29781504,     1152,     2304, 0xc55788ec
0,   29808000,   29808000,     1152,     2304, 0x6b69788e
0,   29834496,   29834496,     1152,     2304, 0xcacb8fea
0,   29860992,   29860992,     1152,     2304, 0x83407ebd
0,   29887488,   29887488,     1152,     2304, 0x998275f3
0,   29913984,   29913984,     1152,     2304, 0x0ca76dcc
0,   29940480,   29940480,     1152,     2304, 0xa1ff7c6a
0,   29966976,   29966976,     1152,     2304, 0x4a597683
0,   29993472,   29993472,     1152,     2304, 0xc8e57f16
0,   30019968,   30019968,     1152,     2304, 0x376d82fb
0,   30046464,   30046464,     1152,     2304, 0x489b8164
0,   30072960,   30072960,     1152,     2304, 0xece27f77
0,   30099456,   30099456,     1152,     2304, 0x4c197e8f
0,   30125952,   30125952,     1152,     2304, 0x6eb07739
0,   30152448,   30152448,     1152,     2304, 0xef628145
0,   30178944,   30178944,     1152,     2304, 0x549d6f12
0,   30205440,   30205440,     1152,     2304, 0xbe566b70
0,   30231936,   30231936,     1152,     2304, 0x2bde87d3
0,   30258432,   30258432,     1152,     2304, 0x0ffd7175
0,   30284928,   30284928,     1152,     2304, 0x47d28a8b
0,   30311424,   30311424,     1152,     2304, 0x6f6c718e
0,   30337920,   30337920,     1152,     2304, 0x665e7937
0,   30364416,   30364416,     1152,     2304, 0x73538e8d
0,   30390912,   30390912,     1152,     2304, 0x56167d71
0,   30417408,   30417408,     1152,     2304, 0x3d0278ed
0,   30443904,   30443904,     1152,     2304, 0x9baf7a51
0,   30470400,   30470400,     1152,     2304, 0x8c058105
0,   30496896,   30496896,     1152,     2304, 0x2b9573ca
0,   30523392,   30523392,     1152,     2304, 0x4a2271a1
0,   30549888,   30549888,     1152,     2304, 0x3d5276f6
0,   30576384,   30576384,     1152,     2304, 0x43c076cd
0,   30602880,   30602880,     1152,     2304, 0x4fec8929
0,   30629376,   30629376,     1152,     2304, 0xaa7167ec
0,   30655872,   30655872,     1152,     2304, 0x39ff7ea5
0,   30682368,   30682368,     1152,     2304, 0x2dd58348
0,   30708864,   30708864,     1152,     2304, 0x03fc8782
0,   30735360,   30735360,     1152,     2304, 0x55a4649c
0,   30761856,   30761856,     1152,     2304, 0x71407067
0,   30788352,   30788352,     1152,     2304, 0x3b667ce6
0,   30814848,   30814848,     1152,     2304, 0xb12e81aa
0,   30841344,   30841344,     1152,     2304, 0xc1646ee3
0,   30867840,   30867840,     1152,     2304, 0x6b55884f
0,   30894336,   30894336,     1152,     2304, 0x292382b5
0,   30920832,   30920832,     1152,     2304, 0x18f97854
0,   30947328,   30947328,     1152,     2304, 0x47a480be
0,   30973824,   30973824,     1152,     2304, 0xe0857b16
0,   31000320,   31000320,     1152,     2304, 0xe3368462
0,   31026816,   31026816,     1152,     2304, 0xced17ae8
0,   31053312,   31053312,     1152,     2304, 0x4020796d
0,   31079808,   31079808,     1152,     2304, 0x26797fd0
0,   31106304,   31106304,     1152,     2304, 0x0e087554
0,   31132800,   31132800,     1152,     2304, 0xf8868040
0,   31159296,   31159296,     1152,     2304, 0x3f0a7784
0,   31185792,   31185792,     1152,     2304, 0xbe517d5e
0,   31212288,   31212288,     1152,     2304, 0xed0b66bc
0,   31238784,   31238784,     1152,     2304, 0x79b96d63
0,   31265280,   31265280,     1152,     2304, 0x1ab4793a
0,   31291776,   31291776,     1152,     2304, 0xd2db7f7d
0,   31318272,   31318272,     1152,     2304, 0x91017992
0,   31344768,   31344768,     1152,     2304, 0xf88f7cb9
0,   31371264,   31371264,     1152,     2304, 0x0cc98309
0,   31397760,   31397760,     1152,     2304, 0x38b77cb8
0,   31424256,   31424256,     1152,     2304, 0x0cb185f9
0,   31450752,   31450752,     1152,     2304, 0xc4a27824
0,   31477248,   31477248,     1152,     2304, 0x1ce97618
0,   31503744,   31503744,     1152,     2304, 0x1423976e
0,   31530240,   31530240,     1152,     2304, 0xdbb781b2
0,   31556736,   31556736,     1152,     2304, 0x156d71d3
0,   31583232,   31583232,     1152,     2304, 0xce228625
0,   31609728,   31609728,     1152,     2304, 0x318072f3
0,   31636224,   31636224,     1152,     2304, 0x464b77a1
0,   31662720,   31662720,     1152,     2304, 0x0204854d
0,   31689216,   31689216,     1152,     2304, 0x498c8373
0,   31715712,   31715712,     1152,     2304, 0xfe1a6e23
0,   31742208,   31742208,     1152,     2304, 0x705284d0
0,   31768704,   31768704,     1152,     2304, 0x91848980
0,   31795200,   31795200,     1152,     2304, 0x259098c5
0,   31821696,   31821696,     1152,     2304, 0x52b07c02
0,   31848192,   31848192,     1152,     2304, 0x017289f6
0,   31874688,   31874688,     1152,     2304, 0xb87687bf
0,   31901184,   31901184,     1152,     2304, 0x72de7843
0,   31927680,   31927680,     1152,     2304, 0x3daf8939
0,   31954176,   31954176,     1152,     2304, 0x0dfb763c
0,   31980672,   31980672,     1152,     2304, 0xc3017408
0,   32007168,   32007168,     1152,     2304, 0x73f27f14
0,   32033664,   32033664,     1152,     2304, 0x1c517541
0,   32060160,   32060160,     1152,     2304, 0xf390748b
0,   32086656,   32086656,     1152,     2304, 0xe6ac71f3
0,   32113152,   32113152,     1152,     2304, 0x6277862d
0,   32139648,   32139648,     1152,     2304, 0x923d6794
0,   32166144,   32166144,     1152,     2304, 0x320a7f20
0,   32192640,   32192640,     1152,     2304, 0x12f07a09
0,   32219136,   32219136,     1152,     2304, 0xf9568b14
0,   32245632,   32245632,     1152,     2304, 0x4d787fea
0,   32272128,   32272128,     1152,     2304, 0x57c5861a
0,   32298624,   32298624,     1152,     2304, 0x826b7cc7
0,   32325120,   32325120,     1152,     2304, 0x7d056a94
0,   32351616,   32351616,     1152,     2304, 0xbf3e8a60
0,   32378112,   32378112,     1152,     2304, 0x5e518cab
0,   32404608,   32404608,     1152,     2304, 0x64e7794b
0,   32431104,   32431104,     1152,     2304, 0x9c9569ac
0,   32457600,   32457600,     1152,     2304, 0xde167582
0,   32484096,   32484096,     1152,     2304, 0xdd8f78b1
0,   32510592,   32510592,     1152,     2304, 0xec577e60
0,   32537088,   32537088,     1152,     2304, 0x06877aa4
0,   32563584,   32563584,     1152,     2304, 0xb5157742
0,   32590080,   32590080,     1152,     2304, 0xf9be6f2b
0,   32616576,   32616576,     1152,     2304, 0xf95784c7
0,   32643072,   32643072,     1152,     2304, 0x5aec7e15
0,   32669568,   32669568,     1152,     2304, 0x666e7ce9
0,   32696064,   32696064,     1152,     2304, 0xa76393a7
0,   32722560,   32722560,     1152,     2304, 0xd1bb6d5c
0,   32749056,   32749056,     1152,     2304, 0x48d88144
0,   32775552,   32775552,     1152,     2304, 0xa7df8177
0,   32802048,   32802048,     1152,     2304, 0x906476b1
0,   32828544,   32828544,     1152,     2304, 0x9f46723d
0,   32855040,   32855040,     1152,     2304, 0xa6d37a0c
0,   32881536,   32881536,     1152,     2304, 0x73e57be2
0,   32908032,   32908032,     1152,     2304, 0x666e8594
0,   32934528,   32934528,     1152,     2304, 0xd4b481d7
0,   32961024,   32961024,     1152,     2304, 0xfced8427
0,   32987520,   32987520,     1152,     2304, 0x743999bd
0,   33014016,   33014016,     1152,     2304, 0x71dd759b
0,   33040512,   33040512,     1152,     2304, 0x54a2849e
0,   33067008,   33067008,     1152,     2304, 0x07377f58
0,   33093504,   33093504,     1152,     2304, 0xfd8f721a
0,   33120000,   33120000,     1152,     2304, 0x4d917422
0,   33146496,   33146496,     1152,     2304, 0xaaa46e2b
0,   33172992,   33172992,     1152,     2304, 0x49e57597
0,   33199488,   33199488,     1152,     2304, 0x29337511
0,   33225984,   33225984,     1152,     2304, 0xdfee84c2
0,   33252480,   33252480,     1152,     2304, 0x57266b8c
0,   33278976,   33278976,     1152,     2304, 0x5bf27cfc
0,   33305472,   33305472,     1152,     2304, 0xdc4b8b29
0,   33331968,   33331968,     1152,     2304, 0xf49e7466
0,   33358464,   33358464,     1152,     2304, 0xf1d975f3
0,   33384960,   33384960,     1152,     2304, 0xc863774d
0,   33411456,   33411456,     1152,     2304, 0x5fab80c0
0,   33437952,   33437952,     1152,     2304, 0x19548d6f
0,   33464448,   33464448,     1152,     2304, 0x165983ac
0,   33490944,   33490944,     1152,     2304, 0x2d658203
0,   33517440,   33517440,     1152,     2304, 0x717678b2
0,   33543936,   33543936,     1152,     2304, 0x1ed26dae
0,   33570432,   33570432,     1152,     2304, 0xecef7975
0,   33596928,   33596928,     1152,     2304, 0xcd2b804c
0,   33623424,   33623424,     1152,     2304, 0xf4597f97
0,   33649920,   33649920,     1152,     2304, 0x904b75cd
0,   33676416,   33676416,     1152,     2304, 0x6b508374
0,   33702912,   33702912,     1152,     2304, 0xb6b4791f
0,   33729408,   33729408,     1152,     2304, 0xce6d7501
0,   33755904,   33755904,     1152,     2304, 0x99ec8bac
0,   33782400,   33782400,     1152,     2304, 0x65d772b7
0,   33808896,   33808896,     1152,     2304, 0xbc2762ff
0,   33835392,   33835392,     1152,     2304, 0xf8a48378
0,   33861888,   33861888,     1152,     2304, 0x18057ad4
0,   33888384,   33888384,     1152,     2304, 0x89af753f
0,   33914880,   33914880,     1152,     2304, 0x95a48fc5
0,   33941376,   33941376,     1152,     2304, 0x8b7576af
0,   33967872,   33967872,     1152,     2304, 0xcdcb6e67
0,   33994368,   33994368,     1152,     2304, 0xe02a7ff3
0,   34020864,   34020864,     1152,     2304, 0x4f0a7d48
0,   34047360,   34047360,     1152,     2304, 0x9bab8287
0,   34073856,   34073856,     1152,     2304, 0xc1fa8063
0,   34100352,   34100352,     1152,     2304, 0x410e7dd7
0,   34126848,   34126848,     1152,     2304, 0xd4de777f
0,   34153344,   34153344,     1152,     2304, 0x403675ac
0,   34179840,   34179840,     1152,     2304, 0x4d7687c5
0,   34206336,   34206336,     1152,     2304, 0x10c6650d
0,   34232832,   34232832,     1152,     2304, 0xd7e67b69
0,   34259328,   34259328,     1152,     2304, 0x42b97fae
0,   34285824,   34285824,     1152,     2304, 0xa8b57a9f
0,   34312320,   34312320,     1152,     2304, 0xc24960a0
0,   34338816,   34338816,     1152,     2304, 0x16198fec
0,   34365312,   34365312,     1152,     2304, 0x29297416
0,   34391808,   34391808,     1152,     2304, 0x129b7d00
0,   34418304,   34418304,     1152,     2304, 0xa9677141
0,   34444800,   34444800,     1152,     2304, 0x86a779bf
0,   34471296,   34471296,     1152,     2304, 0xa3857dce
0,   34497792,   34497792,     1152,     2304, 0xee6d7c4d
0,   34524288,   34524288,     1152,     2304, 0x97127166
0,   34550784,   34550784,     1152,     2304, 0x6e407c25
0,   34577280,   34577280,     1152,     2304, 0x82a07c9a
0,   34603776,   34603776,     1152,     2304, 0xf62381ef
0,   34630272,   34630272,     1152,     2304, 0x2ab86ca8
0,   34656768,   34656768,     1152,     2304, 0x97ca87ed
0,   34683264,   34683264,     1152,     2304, 0x6b4868f2
0,   34709760,   34709760,     1152,     2304, 0xdb2a953c
0,   34736256,   34736256,     1152,     2304, 0x061e7770
0,   34762752,   34762752,     1152,     2304, 0xae067224
0,   34789248,   34789248,     1152,     2304, 0x88a282a3
0,   34815744,   34815744,     1152,     2304, 0x4e14743e
0,   34842240,   34842240,     1152,     2304, 0x3dbd8b7b
0,   34868736,   34868736,     1152,     2304, 0xcae57312
0,   34895232,   34895232,     1152,     2304, 0xf9038ca7
0,   34921728,   34921728,     1152,     2304, 0x03ec6f07
0,   34948224,   34948224,     1152,     2304, 0x8c297359
0,   34974720,   34974720,     1152,     2304, 0x8af1804c
0,   35001216,   35001216,     1152,     2304, 0xf30087c8
0,   35027712,   35027712,     1152,     2304, 0x21127cd1
0,   35054208,   35054208,     1152,     2304, 0xc66772bd
0,   35080704,   35080704,     1152,     2304, 0x05e6630b
0,   35107200,   35107200,     1152,     2304, 0x020688d9
0,   35133696,   35133696,     1152,     2304, 0xee3873cd
0,   35160192,   35160192,     1152,     2304, 0xf263782b
0,   35186688,   35186688,     1152,     2304, 0xf8877144
0,   35213184,   35213184,     1152,     2304, 0xce1e6f33
0,   35239680,   35239680,     1152,     2304, 0xf0457e4f
0,   35266176,   35266176,     1152,     2304, 0xde9387df
0,   35292672,   35292672,     1152,     2304, 0x5df86d1d
0,   35319168,   35319168,     1152,     2304, 0x949087ef
0,   35345664,   35345664,     1152,     2304, 0xdbd269c6
0,   35372160,   35372160,     1152,     2304, 0xd530806e
0,   35398656,   35398656,     1152,     2304, 0x80027b1d
0,   35425152,   35425152,     1152,     2304, 0xccb47c48
0,   35451648,   35451648,     1152,     2304, 0x4f2f8326
0,   35478144,   35478144,     1152,     2304, 0xfe046f23
0,   35504640,   35504640,     1152,     2304, 0x5939759b
0,   35531136,   35531136,     1152,     2304, 0x83147073
0,   35557632,   35557632,     1152,     2304, 0xc9e77b95
0,   35584128,   35584128,     1152,     2304, 0x702d8e51
0,   35610624,   35610624,     1152,     2304, 0x5f5f8492
0,   35637120,   35637120,     1152,     2304, 0x10116d0e
0,   35663616,   35663616,     1152,     2304, 0xb8587894
0,   35690112,   35690112,     1152,     2304, 0x2b357892
0,   35716608,   35716608,     1152,     2304, 0x160e6c20
0,   35743104,   35743104,     1152,     2304, 0x0534874b
0,   35769600,   35769600,     1152,     2304, 0xde687064
0,   35796096,   35796096,     1152,     2304, 0x91ef7fe4
0,   35822592,   35822592,     1152,     2304, 0x077473ce
0,   35849088,   35849088,     1152,     2304, 0x1be77777
0,   35875584,   35875584,     1152,     2304, 0xaada9096
0,   35902080,   35902080,     1152,     2304, 0xeac96f7e
0,   35928576,   35928576,     1152,     2304, 0xe9ca6e72
0,   35955072,   35955072,     1152,     2304, 0xd0868038
0,   35981568,   35981568,     1152,     2304, 0x689176f1
0,   36008064,   36008064,     1152,     2304, 0xdfdb7684
0,   36034560,   36034560,     1152,     2304, 0x83c55d92
0,   36061056,   36061056,     1152,     2304, 0x77587b70
0,   36087552,   36087552,     1152,     2304, 0x60937941
0,   36114048,   36114048,     1152,     2304, 0xb00267bd
0,   36140544,   36140544,     1152,     2304, 0xd0a166eb
0,   36167040,   36167040,     1152,     2304, 0x88718162
0,   36193536,   36193536,     1152,     2304, 0xf9e084ff
0,   36220032,   36220032,     1152,     2304, 0x2ddc8c08
0,   36246528,   36246528,     1152,     2304, 0x843a7178
0,   36273024,   36273024,     1152,     2304, 0x1d9784b4
0,   36299520,   36299520,     1152,     2304, 0x98aa7b1d
0,   36326016,   36326016,     1152,     2304, 0x583e846e
0,   36352512,   36352512,     1152,     2304, 0xa6d284ec
0,   36379008,   36379008,     1152,     2304, 0xa0147cbf
0,   36405504,   36405504,     1152,     2304, 0xb3bf7b4b
0,   36432000,   36432000,     1152,     2304, 0x7f8b78dd
0,   36458496,   36458496,     1152,     2304, 0xd3fb761f
0,   36484992,   36484992,     1152,     2304, 0x78147c2f
0,   36511488,   36511488,     1152,     2304, 0x5e747b26
0,   36537984,   36537984,     1152,     2304, 0x0d8e7d96
0,   36564480,   36564480,     1152,     2304, 0x73728362
0,   36590976,   36590976,     1152,     2304, 0x7c54707b
0,   36617472,   36617472,     1152,     2304, 0xb89c7806
0,   36643968,   36643968,     1152,     2304, 0x5f0f7a91
0,   36670464,   36670464,     1152,     2304, 0x35217e84
0,   36696960,   36696960,     1152,     2304, 0xb3798553
0,   36723456,   36723456,     1152,     2304, 0xd8377e8a
0,   36749952,   36749952,     1152,     2304, 0x339181ba
0,   36776448,   36776448,     1152,     2304, 0xbe196b2c
0,   36802944,   36802944,     1152,     2304, 0xdc708cc4
0,   36829440,   36829440,     1152,     2304, 0x649c74c1
0,   36855936,   36855936,     1152,     2304, 0xac128649
0,   36882432,   36882432,     1152,     2304, 0xcd266a22
0,   36908928,   36908928,     1152,     2304, 0xdfde7023
0,   36935424,   36935424,     1152,     2304, 0xf92d7450
0,   36961920,   36961920,     1152,     2304, 0x9ce379ac
0,   36988416,   36988416,     1152,     2304, 0xee5e712e
0,   37014912,   37014912,     1152,     2304, 0xa12676c0
0,   37041408,   37041408,     1152,     2304, 0x4cee7be1
0,   37067904,   37067904,     1152,     2304, 0x90c881e5
0,   37094400,   37094400,     1152,     2304, 0xa6a78158
0,   37120896,   37120896,     1152,     2304, 0xd248864a
0,   37147392,   37147392,     1152,     2304, 0x7a8972b4
0,   37173888,   37173888,     1152,     2304, 0x5c8a75cb
0,   37200384,   37200384,     1152,     2304, 0x07606722
0,   37226880,   37226880,     1152,     2304, 0xbf497aae
0,   37253376,   37253376,     1152,     2304, 0xffab7d66
0,   37279872,   37279872,     1152,     2304, 0xefdc7d05
0,   37306368,   37306368,     1152,     2304, 0x02d686dd
0,   37332864,   37332864,     1152,     2304, 0x852e6eb6
0,   37359360,   37359360,     1152,     2304, 0x3445706b
0,   37385856,   37385856,     1152,     2304, 0x04677828
0,   37412352,   37412352,     1152,     2304, 0x5d5c833c
0,   37438848,   37438848,     1152,     2304, 0xf4277e06
0,   37465344,   37465344,     1152,     2304, 0xcece72ab
0,   37491840,   37491840,     1152,     2304, 0x10837aff
0,   37518336,   37518336,     1152,     2304, 0x0265762b
0,   37544832,   37544832,     1152,     2304, 0x0fc979de
0,   37571328,   37571328,     1152,     2304, 0xeecf7010
0,   37597824,   37597824,     1152,     2304, 0x313975cd
0,   37624320,   37624320,     1152,     2304, 0xccce84a7
0,   37650816,   37650816,     1152,     2304, 0x823e6935
0,   37677312,   37677312,     1152,     2304, 0xa0606ade
0,   37703808,   37703808,     1152,     2304, 0x2c2d7866
0,   37730304,   37730304,     1152,     2304, 0x3a5a781e
0,   37756800,   37756800,     1152,     2304, 0xdaf677fd
0,   37783296,   37783296,     1152,     2304, 0x79d88aca
0,   37809792,   37809792,     1152,     2304, 0x3db27308
0,   37836288,   37836288,     1152,     2304, 0x627175ff
0,   37862784,   37862784,     1152,     2304, 0x40697b16
0,   37889280,   37889280,     1152,     2304, 0x40e47ee7
0,   37915776,   37915776,     1152,     2304, 0x6a6a7d91
0,   37942272,   37942272,     1152,     2304, 0x8d3e8a32
0,   37968768,   37968768,     1152,     2304, 0x576a817e
0,   37995264,   37995264,     1152,     2304, 0x86287f9b
0,   38021760,   38021760,     1152,     2304, 0x43e081ce
0,   38048256,   38048256,     1152,     2304, 0xe44b8003
0,   38074752,   38074752,     1152,     2304, 0xfb237f5b
0,   38101248,   38101248,     1152,     2304, 0x28967c8a
0,   38127744,   38127744,     1152,     2304, 0x97478829
0,   38154240,   38154240,     1152,     2304, 0x615570e8
0,   38180736,   38180736,     1152,     2304, 0xa52c7d34
0,   38207232,   38207232,     1152,     2304, 0xb55473e8
0,   38233728,   38233728,     1152,     2304, 0x08a07d6c
0,   38260224,   38260224,     1152,     2304, 0x2eed916a
0,   38286720,   38286720,     1152,     2304, 0x8ce36cec
0,   38313216,   38313216,     1152,     2304, 0x775e8992
0,   38339712,   38339712,     1152,     2304, 0x99ad816b
0,   38366208,   38366208,     1152,     2304, 0x697a70be
0,   38392704,   38392704,     1152,     2304, 0x38c46cf2
0,   38419200,   38419200,     1152,     2304, 0xf9d681f4
0,   38445696,   38445696,     1152,     2304, 0xa7336fea
0,   38472192,   38472192,     1152,     2304, 0xd2a97e59
0,   38498688,   38498688,     1152,     2304, 0x02b880e9
0,   38525184,   38525184,     1152,     2304, 0x2a486e9e
0,   38551680,   38551680,     1152,     2304, 0x5f197c43
0,   38578176,   38578176,     1152,     2304, 0x266679ad
0,   38604672,   38604672,     1152,     2304, 0x7cfd7c8a
0,   38631168,   38631168,     1152,     2304, 0x43b681bb
0,   38657664,   38657664,     1152,     2304, 0x63309cff
0,   38684160,   38684160,     1152,     2304, 0x80f36f7d
0,   38710656,   38710656,     1152,     2304, 0xcead7b98
0,   38737152,   38737152,     1152,     2304, 0x8475992f
0,   38763648,   38763648,     1152,     2304, 0x746782d2
0,   38790144,   38790144,     1152,     2304, 0x2b486982
0,   38816640,   38816640,     1152,     2304, 0xc80c7fc2
0,   38843136,   38843136,     1152,     2304, 0x148c7c3b
0,   38869632,   38869632,     1152,     2304, 0x49c477df
0,   38896128,   38896128,     1152,     2304, 0x1bf97c56
0,   38922624,   38922624,     1152,     2304, 0x89a38221
0,   38949120,   38949120,     1152,     2304, 0xcb757a31
0,   38975616,   38975616,     1152,     2304, 0xd3bb72fa
0,   39002112,   39002112,     1152,     2304, 0xe5727650
0,   39028608,   39028608,     1152,     2304, 0x5d4e9242
0,   39055104,   39055104,     1152,     2304, 0x29207f75
0,   39081600,   39081600,     1152,     2304, 0x5b1d954a
0,   39108096,   39108096,     1152,     2304, 0xa2888223
0,   39134592,   39134592,     1152,     2304, 0xe31d8af7
0,   39161088,   39161088,     1152,     2304, 0x29ee82dd
0,   39187584,   39187584,     1152,     2304, 0x4b1d7887
0,   39214080,   39214080,     1152,     2304, 0xc0308236
0,   39240576,   39240576,     1152,     2304, 0xaed68e92
0,   39267072,   39267072,     1152,     2304, 0xbc1171e9
0,   39293568,   39293568,     1152,     2304, 0x379f828b
0,   39320064,   39320064,     1152,     2304, 0x83de72c8
0,   39346560,   39346560,     1152,     2304, 0xb11a806a
0,   39373056,   39373056,     1152,     2304, 0x7ac17e7a
0,   39399552,   39399552,     1152,     2304, 0x031b7d9a
0,   39426048,   39426048,     1152,     2304, 0xebc97c43
0,   39452544,   39452544,     1152,     2304, 0x914e86a7
0,   39479040,   39479040,     1152,     2304, 0x88e2747e
0,   39505536,   39505536,     1152,     2304, 0x153076bc
0,   39532032,   39532032,     1152,     2304, 0xdacc7ebb
0,   39558528,   39558528,     1152,     2304, 0x0905709a
0,   39585024,   39585024,     1152,     2304, 0x13358109
0,   39611520,   39611520,     1152,     2304, 0x18227228
0,   39638016,   39638016,     1152,     2304, 0x318082d7
0,   39664512,   39664512,     1152,     2304, 0x8aec7a8e
0,   39691008,   39691008,     1152,     2304, 0x8c9c7755
0,   39717504,   39717504,     1152,     2304, 0xdba46e2f
0,   39744000,   39744000,     1152,     2304, 0xd47d7f5a
0,   39770496,   39770496,     1152,     2304, 0xeb1370ec
0,   39796992,   39796992,     1152,     2304, 0xf6d68e74
0,   39823488,   39823488,     1152,     2304, 0x3d5a7c66
0,   39849984,   39849984,     1152,     2304, 0x264b6d68
0,   39876480,   39876480,     1152,     2304, 0x7cde8b9f
0,   39902976,   39902976,     1152,     2304, 0xba467347
0,   39929472,   39929472,     1152,     2304, 0x921987f7
0,   39955968,   39955968,     1152,     2304, 0x9c6c7fce
0,   39982464,   39982464,     1152,     2304, 0x02cb828f
0,   40008960,   40008960,     1152,     2304, 0x3b427077
0,   40035456,   40035456,     1152,     2304, 0x6f9c7523
0,   40061952,   40061952,     1152,     2304, 0xef688204
0,   40088448,   40088448,     1152,     2304, 0x263782dc
0,   40114944,   40114944,     1152,     2304, 0xb6ca7e46
0,   40141440,   40141440,     1152,     2304, 0xb0929636
0,   40167936,   40167936,     1152,     2304, 0x60a97b7a
0,   40194432,   40194432,     1152,     2304, 0xcf037690
0,   40220928,   40220928,     1152,     2304, 0xc9046a25
0,   40247424,   40247424,     1152,     2304, 0xbf247f3c
0,   40273920,   40273920,     1152,     2304, 0x71e77d34
0,   40300416,   40300416,     1152,     2304, 0x96ce7a01
0,   40326912,   40326912,     1152,     2304, 0xf9b07a27
0,   40353408,   40353408,     1152,     2304, 0x984b830b
0,   40379904,   40379904,     1152,     2304, 0xff11822b
0,   40406400,   40406400,     1152,     2304, 0xb0a18578
0,   40432896,   40432896,     1152,     2304, 0xa9d98ef8
0,   40459392,   40459392,     1152,     2304, 0x4f9076e1
0,   40485888,   40485888,     1152,     2304, 0xb63c7742
0,   40512384,   40512384,     1152,     2304, 0xb4c06ae2
0,   40538880,   40538880,     1152,     2304, 0x41738531
0,   40565376,   40565376,     1152,     2304, 0x55125e7b
